G04 #@! TF.GenerationSoftware,KiCad,Pcbnew,6.0.1+dfsg-1*
G04 #@! TF.CreationDate,2022-05-09T21:59:50-04:00*
G04 #@! TF.ProjectId,wacom,7761636f-6d2e-46b6-9963-61645f706362,rev?*
G04 #@! TF.SameCoordinates,Original*
G04 #@! TF.FileFunction,Soldermask,Bot*
G04 #@! TF.FilePolarity,Negative*
%FSLAX46Y46*%
G04 Gerber Fmt 4.6, Leading zero omitted, Abs format (unit mm)*
G04 Created by KiCad (PCBNEW 6.0.1+dfsg-1) date 2022-05-09 21:59:50*
%MOMM*%
%LPD*%
G01*
G04 APERTURE LIST*
%ADD10R,1.700000X1.700000*%
%ADD11O,1.700000X1.700000*%
%ADD12R,1.498600X1.498600*%
%ADD13C,1.498600*%
G04 APERTURE END LIST*
D10*
X99060000Y-93980000D03*
D11*
X101600000Y-93980000D03*
X104140000Y-93980000D03*
X106680000Y-93980000D03*
D10*
X119380000Y-58420000D03*
D11*
X121920000Y-58420000D03*
X124460000Y-58420000D03*
D10*
X94615000Y-78105000D03*
D11*
X94615000Y-75565000D03*
X94615000Y-73025000D03*
X94615000Y-70485000D03*
X94615000Y-67945000D03*
X94615000Y-65405000D03*
D10*
X111760000Y-58420000D03*
D11*
X109220000Y-58420000D03*
X106680000Y-58420000D03*
D10*
X111760000Y-93980000D03*
D11*
X114300000Y-93980000D03*
X116840000Y-93980000D03*
X119380000Y-93980000D03*
X121920000Y-93980000D03*
X124460000Y-93980000D03*
X127000000Y-93980000D03*
X129540000Y-93980000D03*
D10*
X91440000Y-85725000D03*
D11*
X93980000Y-85725000D03*
X91440000Y-88265000D03*
X93980000Y-88265000D03*
X91440000Y-90805000D03*
X93980000Y-90805000D03*
D12*
X92559999Y-57729999D03*
D13*
X92710000Y-62230000D03*
X99060001Y-57729999D03*
X99060001Y-62230000D03*
D10*
X134630000Y-93980000D03*
D11*
X137170000Y-93980000D03*
X139710000Y-93980000D03*
X142250000Y-93980000D03*
D10*
X139700000Y-61595000D03*
D11*
X142240000Y-61595000D03*
X139700000Y-64135000D03*
X142240000Y-64135000D03*
X139700000Y-66675000D03*
X142240000Y-66675000D03*
X139700000Y-69215000D03*
X142240000Y-69215000D03*
X139700000Y-71755000D03*
X142240000Y-71755000D03*
X139700000Y-74295000D03*
X142240000Y-74295000D03*
X139700000Y-76835000D03*
X142240000Y-76835000D03*
X139700000Y-79375000D03*
X142240000Y-79375000D03*
X139700000Y-81915000D03*
X142240000Y-81915000D03*
G36*
X136594121Y-55900002D02*
G01*
X136640614Y-55953658D01*
X136652000Y-56006000D01*
X136652000Y-65733810D01*
X136631998Y-65801931D01*
X136615095Y-65822905D01*
X135418905Y-67019095D01*
X135356593Y-67053121D01*
X135329810Y-67056000D01*
X130354190Y-67056000D01*
X130286069Y-67035998D01*
X130265095Y-67019095D01*
X128052905Y-64806905D01*
X128018879Y-64744593D01*
X128016000Y-64717810D01*
X128016000Y-56006000D01*
X128036002Y-55937879D01*
X128089658Y-55891386D01*
X128142000Y-55880000D01*
X136526000Y-55880000D01*
X136594121Y-55900002D01*
G37*
M02*
