%FSLAX45Y45*%
G04 Gerber Fmt 4.5, Leading zero omitted, Abs format (unit mm)*
G04 Created by KiCad (PCBNEW 6.0.1+dfsg-1) date 2022-05-09 21:45:22*
%MOMM*%
%LPD*%
G01*
G04 APERTURE LIST*
%TA.AperFunction,Profile*%
%ADD10C,0.100000*%
%TD*%
%ADD11C,0.200000*%
%ADD12C,0.040000*%
%ADD13C,0.050000*%
%ADD14C,0.099060*%
%ADD15C,0.100000*%
G04 APERTURE END LIST*
D10*
X8953500Y-5588000D02*
X8826500Y-5588000D01*
X14478000Y-5588000D02*
X8953500Y-5588000D01*
X8826500Y-5588000D02*
X8826500Y-9652000D01*
X14478000Y-9652000D02*
X14478000Y-9588500D01*
X14478000Y-9588500D02*
X14478000Y-5651500D01*
X14478000Y-5651500D02*
X14478000Y-5588000D01*
X8826500Y-9652000D02*
X14478000Y-9652000D01*
D11*
D12*
X10800400Y-6914200D02*
X10840400Y-6954200D01*
X10840400Y-6914200D02*
X10800400Y-6954200D01*
X10825800Y-8209600D02*
X10865800Y-8249600D01*
X10865800Y-8209600D02*
X10825800Y-8249600D01*
X10876600Y-7970840D02*
X10916600Y-8010840D01*
X10916600Y-7970840D02*
X10876600Y-8010840D01*
X11089850Y-8006400D02*
X11129850Y-8046400D01*
X11129850Y-8006400D02*
X11089850Y-8046400D01*
X11382217Y-8893017D02*
X11422217Y-8933017D01*
X11422217Y-8893017D02*
X11382217Y-8933017D01*
X11435400Y-7422200D02*
X11475400Y-7462200D01*
X11475400Y-7422200D02*
X11435400Y-7462200D01*
X11435400Y-8760901D02*
X11475400Y-8800901D01*
X11475400Y-8760901D02*
X11435400Y-8800901D01*
X11486200Y-8616000D02*
X11526200Y-8656000D01*
X11526200Y-8616000D02*
X11486200Y-8656000D01*
X11562400Y-8133400D02*
X11602400Y-8173400D01*
X11602400Y-8133400D02*
X11562400Y-8173400D01*
X11587800Y-7777800D02*
X11627800Y-7817800D01*
X11627800Y-7777800D02*
X11587800Y-7817800D01*
X11664000Y-8006400D02*
X11704000Y-8046400D01*
X11704000Y-8006400D02*
X11664000Y-8046400D01*
X11672684Y-8117544D02*
X11712684Y-8157544D01*
X11712684Y-8117544D02*
X11672684Y-8157544D01*
X11714800Y-8260400D02*
X11754800Y-8300400D01*
X11754800Y-8260400D02*
X11714800Y-8300400D01*
X11984360Y-8321900D02*
X12024360Y-8361900D01*
X12024360Y-8321900D02*
X11984360Y-8361900D01*
X12299000Y-6685600D02*
X12339000Y-6725600D01*
X12339000Y-6685600D02*
X12299000Y-6725600D01*
X12723624Y-7440424D02*
X12763624Y-7480424D01*
X12763624Y-7440424D02*
X12723624Y-7480424D01*
X13137200Y-7168200D02*
X13177200Y-7208200D01*
X13177200Y-7168200D02*
X13137200Y-7208200D01*
X13213400Y-7269800D02*
X13253400Y-7309800D01*
X13253400Y-7269800D02*
X13213400Y-7309800D01*
X13289600Y-7371400D02*
X13329600Y-7411400D01*
X13329600Y-7371400D02*
X13289600Y-7411400D01*
X13365800Y-7473861D02*
X13405800Y-7513861D01*
X13405800Y-7473861D02*
X13365800Y-7513861D01*
X13581270Y-7586870D02*
X13621270Y-7626870D01*
X13621270Y-7586870D02*
X13581270Y-7626870D01*
D13*
X9981800Y-8229600D02*
G75*
G03*
X9981800Y-8229600I-25000J0D01*
G01*
X10210400Y-7607300D02*
G75*
G03*
X10210400Y-7607300I-25000J0D01*
G01*
X10566000Y-7150100D02*
G75*
G03*
X10566000Y-7150100I-25000J0D01*
G01*
X11404200Y-9088120D02*
G75*
G03*
X11404200Y-9088120I-25000J0D01*
G01*
X11917280Y-6670040D02*
G75*
G03*
X11917280Y-6670040I-25000J0D01*
G01*
X11975700Y-7937500D02*
G75*
G03*
X11975700Y-7937500I-25000J0D01*
G01*
X12191600Y-8978900D02*
G75*
G03*
X12191600Y-8978900I-25000J0D01*
G01*
X12227160Y-6766560D02*
G75*
G03*
X12227160Y-6766560I-25000J0D01*
G01*
X12280500Y-7188200D02*
G75*
G03*
X12280500Y-7188200I-25000J0D01*
G01*
X12483700Y-9055100D02*
G75*
G03*
X12483700Y-9055100I-25000J0D01*
G01*
X12557360Y-7223760D02*
G75*
G03*
X12557360Y-7223760I-25000J0D01*
G01*
X12628480Y-6207760D02*
G75*
G03*
X12628480Y-6207760I-25000J0D01*
G01*
X13349840Y-7035800D02*
G75*
G03*
X13349840Y-7035800I-25000J0D01*
G01*
D14*
X9256000Y-5723470D02*
X9256000Y-5822530D01*
X9206470Y-5773000D02*
X9305530Y-5773000D01*
X9271000Y-6173470D02*
X9271000Y-6272530D01*
X9221470Y-6223000D02*
X9320530Y-6223000D01*
X9906000Y-5723470D02*
X9906000Y-5822530D01*
X9856470Y-5773000D02*
X9955530Y-5773000D01*
X9906000Y-6173470D02*
X9906000Y-6272530D01*
X9856470Y-6223000D02*
X9955530Y-6223000D01*
D15*
X9179356Y-8607856D02*
X9179356Y-8537144D01*
X9108644Y-8537144D01*
X9108644Y-8607856D01*
X9179356Y-8607856D01*
X9179356Y-8861856D02*
X9179356Y-8791144D01*
X9108644Y-8791144D01*
X9108644Y-8861856D01*
X9179356Y-8861856D01*
X9179356Y-9115856D02*
X9179356Y-9045144D01*
X9108644Y-9045144D01*
X9108644Y-9115856D01*
X9179356Y-9115856D01*
X9433356Y-8607856D02*
X9433356Y-8537144D01*
X9362644Y-8537144D01*
X9362644Y-8607856D01*
X9433356Y-8607856D01*
X9433356Y-8861856D02*
X9433356Y-8791144D01*
X9362644Y-8791144D01*
X9362644Y-8861856D01*
X9433356Y-8861856D01*
X9433356Y-9115856D02*
X9433356Y-9045144D01*
X9362644Y-9045144D01*
X9362644Y-9115856D01*
X9433356Y-9115856D01*
X9496856Y-6575856D02*
X9496856Y-6505144D01*
X9426144Y-6505144D01*
X9426144Y-6575856D01*
X9496856Y-6575856D01*
X9496856Y-6829856D02*
X9496856Y-6759144D01*
X9426144Y-6759144D01*
X9426144Y-6829856D01*
X9496856Y-6829856D01*
X9496856Y-7083856D02*
X9496856Y-7013144D01*
X9426144Y-7013144D01*
X9426144Y-7083856D01*
X9496856Y-7083856D01*
X9496856Y-7337856D02*
X9496856Y-7267144D01*
X9426144Y-7267144D01*
X9426144Y-7337856D01*
X9496856Y-7337856D01*
X9496856Y-7591856D02*
X9496856Y-7521144D01*
X9426144Y-7521144D01*
X9426144Y-7591856D01*
X9496856Y-7591856D01*
X9496856Y-7845856D02*
X9496856Y-7775144D01*
X9426144Y-7775144D01*
X9426144Y-7845856D01*
X9496856Y-7845856D01*
X9941356Y-9433356D02*
X9941356Y-9362644D01*
X9870644Y-9362644D01*
X9870644Y-9433356D01*
X9941356Y-9433356D01*
X10195356Y-9433356D02*
X10195356Y-9362644D01*
X10124644Y-9362644D01*
X10124644Y-9433356D01*
X10195356Y-9433356D01*
X10449356Y-9433356D02*
X10449356Y-9362644D01*
X10378644Y-9362644D01*
X10378644Y-9433356D01*
X10449356Y-9433356D01*
X10703356Y-5877356D02*
X10703356Y-5806644D01*
X10632644Y-5806644D01*
X10632644Y-5877356D01*
X10703356Y-5877356D01*
X10703356Y-9433356D02*
X10703356Y-9362644D01*
X10632644Y-9362644D01*
X10632644Y-9433356D01*
X10703356Y-9433356D01*
X10957356Y-5877356D02*
X10957356Y-5806644D01*
X10886644Y-5806644D01*
X10886644Y-5877356D01*
X10957356Y-5877356D01*
X11211356Y-5877356D02*
X11211356Y-5806644D01*
X11140644Y-5806644D01*
X11140644Y-5877356D01*
X11211356Y-5877356D01*
X11211356Y-9433356D02*
X11211356Y-9362644D01*
X11140644Y-9362644D01*
X11140644Y-9433356D01*
X11211356Y-9433356D01*
X11465356Y-9433356D02*
X11465356Y-9362644D01*
X11394644Y-9362644D01*
X11394644Y-9433356D01*
X11465356Y-9433356D01*
X11719356Y-9433356D02*
X11719356Y-9362644D01*
X11648644Y-9362644D01*
X11648644Y-9433356D01*
X11719356Y-9433356D01*
X11973356Y-5877356D02*
X11973356Y-5806644D01*
X11902644Y-5806644D01*
X11902644Y-5877356D01*
X11973356Y-5877356D01*
X11973356Y-9433356D02*
X11973356Y-9362644D01*
X11902644Y-9362644D01*
X11902644Y-9433356D01*
X11973356Y-9433356D01*
X12227356Y-5877356D02*
X12227356Y-5806644D01*
X12156644Y-5806644D01*
X12156644Y-5877356D01*
X12227356Y-5877356D01*
X12227356Y-9433356D02*
X12227356Y-9362644D01*
X12156644Y-9362644D01*
X12156644Y-9433356D01*
X12227356Y-9433356D01*
X12481356Y-5877356D02*
X12481356Y-5806644D01*
X12410644Y-5806644D01*
X12410644Y-5877356D01*
X12481356Y-5877356D01*
X12481356Y-9433356D02*
X12481356Y-9362644D01*
X12410644Y-9362644D01*
X12410644Y-9433356D01*
X12481356Y-9433356D01*
X12735356Y-9433356D02*
X12735356Y-9362644D01*
X12664644Y-9362644D01*
X12664644Y-9433356D01*
X12735356Y-9433356D01*
X12989356Y-9433356D02*
X12989356Y-9362644D01*
X12918644Y-9362644D01*
X12918644Y-9433356D01*
X12989356Y-9433356D01*
X13498356Y-9433356D02*
X13498356Y-9362644D01*
X13427644Y-9362644D01*
X13427644Y-9433356D01*
X13498356Y-9433356D01*
X13752356Y-9433356D02*
X13752356Y-9362644D01*
X13681644Y-9362644D01*
X13681644Y-9433356D01*
X13752356Y-9433356D01*
X14005356Y-6194856D02*
X14005356Y-6124144D01*
X13934644Y-6124144D01*
X13934644Y-6194856D01*
X14005356Y-6194856D01*
X14005356Y-6448856D02*
X14005356Y-6378144D01*
X13934644Y-6378144D01*
X13934644Y-6448856D01*
X14005356Y-6448856D01*
X14005356Y-6702856D02*
X14005356Y-6632144D01*
X13934644Y-6632144D01*
X13934644Y-6702856D01*
X14005356Y-6702856D01*
X14005356Y-6956856D02*
X14005356Y-6886144D01*
X13934644Y-6886144D01*
X13934644Y-6956856D01*
X14005356Y-6956856D01*
X14005356Y-7210856D02*
X14005356Y-7140144D01*
X13934644Y-7140144D01*
X13934644Y-7210856D01*
X14005356Y-7210856D01*
X14005356Y-7464856D02*
X14005356Y-7394144D01*
X13934644Y-7394144D01*
X13934644Y-7464856D01*
X14005356Y-7464856D01*
X14005356Y-7718856D02*
X14005356Y-7648144D01*
X13934644Y-7648144D01*
X13934644Y-7718856D01*
X14005356Y-7718856D01*
X14005356Y-7972856D02*
X14005356Y-7902144D01*
X13934644Y-7902144D01*
X13934644Y-7972856D01*
X14005356Y-7972856D01*
X14005356Y-8226856D02*
X14005356Y-8156144D01*
X13934644Y-8156144D01*
X13934644Y-8226856D01*
X14005356Y-8226856D01*
X14006356Y-9433356D02*
X14006356Y-9362644D01*
X13935644Y-9362644D01*
X13935644Y-9433356D01*
X14006356Y-9433356D01*
X14259356Y-6194856D02*
X14259356Y-6124144D01*
X14188644Y-6124144D01*
X14188644Y-6194856D01*
X14259356Y-6194856D01*
X14259356Y-6448856D02*
X14259356Y-6378144D01*
X14188644Y-6378144D01*
X14188644Y-6448856D01*
X14259356Y-6448856D01*
X14259356Y-6702856D02*
X14259356Y-6632144D01*
X14188644Y-6632144D01*
X14188644Y-6702856D01*
X14259356Y-6702856D01*
X14259356Y-6956856D02*
X14259356Y-6886144D01*
X14188644Y-6886144D01*
X14188644Y-6956856D01*
X14259356Y-6956856D01*
X14259356Y-7210856D02*
X14259356Y-7140144D01*
X14188644Y-7140144D01*
X14188644Y-7210856D01*
X14259356Y-7210856D01*
X14259356Y-7464856D02*
X14259356Y-7394144D01*
X14188644Y-7394144D01*
X14188644Y-7464856D01*
X14259356Y-7464856D01*
X14259356Y-7718856D02*
X14259356Y-7648144D01*
X14188644Y-7648144D01*
X14188644Y-7718856D01*
X14259356Y-7718856D01*
X14259356Y-7972856D02*
X14259356Y-7902144D01*
X14188644Y-7902144D01*
X14188644Y-7972856D01*
X14259356Y-7972856D01*
X14259356Y-8226856D02*
X14259356Y-8156144D01*
X14188644Y-8156144D01*
X14188644Y-8226856D01*
X14259356Y-8226856D01*
X14260356Y-9433356D02*
X14260356Y-9362644D01*
X14189644Y-9362644D01*
X14189644Y-9433356D01*
X14260356Y-9433356D01*
D11*
X9079119Y-9967476D02*
X9079119Y-9767476D01*
X9126738Y-9767476D01*
X9155310Y-9777000D01*
X9174357Y-9796048D01*
X9183881Y-9815095D01*
X9193405Y-9853190D01*
X9193405Y-9881762D01*
X9183881Y-9919857D01*
X9174357Y-9938905D01*
X9155310Y-9957952D01*
X9126738Y-9967476D01*
X9079119Y-9967476D01*
X9279119Y-9967476D02*
X9279119Y-9834143D01*
X9279119Y-9872238D02*
X9288643Y-9853190D01*
X9298167Y-9843667D01*
X9317214Y-9834143D01*
X9336262Y-9834143D01*
X9402929Y-9967476D02*
X9402929Y-9834143D01*
X9402929Y-9767476D02*
X9393405Y-9777000D01*
X9402929Y-9786524D01*
X9412452Y-9777000D01*
X9402929Y-9767476D01*
X9402929Y-9786524D01*
X9526738Y-9967476D02*
X9507690Y-9957952D01*
X9498167Y-9938905D01*
X9498167Y-9767476D01*
X9631500Y-9967476D02*
X9612452Y-9957952D01*
X9602929Y-9938905D01*
X9602929Y-9767476D01*
X9860071Y-9967476D02*
X9860071Y-9767476D01*
X9926738Y-9910333D01*
X9993405Y-9767476D01*
X9993405Y-9967476D01*
X10174357Y-9967476D02*
X10174357Y-9862714D01*
X10164833Y-9843667D01*
X10145786Y-9834143D01*
X10107690Y-9834143D01*
X10088643Y-9843667D01*
X10174357Y-9957952D02*
X10155310Y-9967476D01*
X10107690Y-9967476D01*
X10088643Y-9957952D01*
X10079119Y-9938905D01*
X10079119Y-9919857D01*
X10088643Y-9900810D01*
X10107690Y-9891286D01*
X10155310Y-9891286D01*
X10174357Y-9881762D01*
X10269595Y-9834143D02*
X10269595Y-10034143D01*
X10269595Y-9843667D02*
X10288643Y-9834143D01*
X10326738Y-9834143D01*
X10345786Y-9843667D01*
X10355310Y-9853190D01*
X10364833Y-9872238D01*
X10364833Y-9929381D01*
X10355310Y-9948429D01*
X10345786Y-9957952D01*
X10326738Y-9967476D01*
X10288643Y-9967476D01*
X10269595Y-9957952D01*
X10450548Y-9948429D02*
X10460071Y-9957952D01*
X10450548Y-9967476D01*
X10441024Y-9957952D01*
X10450548Y-9948429D01*
X10450548Y-9967476D01*
X10450548Y-9843667D02*
X10460071Y-9853190D01*
X10450548Y-9862714D01*
X10441024Y-9853190D01*
X10450548Y-9843667D01*
X10450548Y-9862714D01*
D12*
X8781500Y-10277000D02*
X8821500Y-10317000D01*
X8821500Y-10277000D02*
X8781500Y-10317000D01*
D11*
X9117214Y-10187476D02*
X9136262Y-10187476D01*
X9155310Y-10197000D01*
X9164833Y-10206524D01*
X9174357Y-10225571D01*
X9183881Y-10263667D01*
X9183881Y-10311286D01*
X9174357Y-10349381D01*
X9164833Y-10368429D01*
X9155310Y-10377952D01*
X9136262Y-10387476D01*
X9117214Y-10387476D01*
X9098167Y-10377952D01*
X9088643Y-10368429D01*
X9079119Y-10349381D01*
X9069595Y-10311286D01*
X9069595Y-10263667D01*
X9079119Y-10225571D01*
X9088643Y-10206524D01*
X9098167Y-10197000D01*
X9117214Y-10187476D01*
X9269595Y-10368429D02*
X9279119Y-10377952D01*
X9269595Y-10387476D01*
X9260071Y-10377952D01*
X9269595Y-10368429D01*
X9269595Y-10387476D01*
X9450548Y-10254143D02*
X9450548Y-10387476D01*
X9402929Y-10177952D02*
X9355310Y-10320810D01*
X9479119Y-10320810D01*
X9593405Y-10187476D02*
X9612452Y-10187476D01*
X9631500Y-10197000D01*
X9641024Y-10206524D01*
X9650548Y-10225571D01*
X9660071Y-10263667D01*
X9660071Y-10311286D01*
X9650548Y-10349381D01*
X9641024Y-10368429D01*
X9631500Y-10377952D01*
X9612452Y-10387476D01*
X9593405Y-10387476D01*
X9574357Y-10377952D01*
X9564833Y-10368429D01*
X9555310Y-10349381D01*
X9545786Y-10311286D01*
X9545786Y-10263667D01*
X9555310Y-10225571D01*
X9564833Y-10206524D01*
X9574357Y-10197000D01*
X9593405Y-10187476D01*
X9783881Y-10187476D02*
X9802929Y-10187476D01*
X9821976Y-10197000D01*
X9831500Y-10206524D01*
X9841024Y-10225571D01*
X9850548Y-10263667D01*
X9850548Y-10311286D01*
X9841024Y-10349381D01*
X9831500Y-10368429D01*
X9821976Y-10377952D01*
X9802929Y-10387476D01*
X9783881Y-10387476D01*
X9764833Y-10377952D01*
X9755310Y-10368429D01*
X9745786Y-10349381D01*
X9736262Y-10311286D01*
X9736262Y-10263667D01*
X9745786Y-10225571D01*
X9755310Y-10206524D01*
X9764833Y-10197000D01*
X9783881Y-10187476D01*
X9936262Y-10387476D02*
X9936262Y-10254143D01*
X9936262Y-10273190D02*
X9945786Y-10263667D01*
X9964833Y-10254143D01*
X9993405Y-10254143D01*
X10012452Y-10263667D01*
X10021976Y-10282714D01*
X10021976Y-10387476D01*
X10021976Y-10282714D02*
X10031500Y-10263667D01*
X10050548Y-10254143D01*
X10079119Y-10254143D01*
X10098167Y-10263667D01*
X10107690Y-10282714D01*
X10107690Y-10387476D01*
X10202929Y-10387476D02*
X10202929Y-10254143D01*
X10202929Y-10273190D02*
X10212452Y-10263667D01*
X10231500Y-10254143D01*
X10260071Y-10254143D01*
X10279119Y-10263667D01*
X10288643Y-10282714D01*
X10288643Y-10387476D01*
X10288643Y-10282714D02*
X10298167Y-10263667D01*
X10317214Y-10254143D01*
X10345786Y-10254143D01*
X10364833Y-10263667D01*
X10374357Y-10282714D01*
X10374357Y-10387476D01*
X10764833Y-10177952D02*
X10593405Y-10435095D01*
X11021976Y-10187476D02*
X11041024Y-10187476D01*
X11060071Y-10197000D01*
X11069595Y-10206524D01*
X11079119Y-10225571D01*
X11088643Y-10263667D01*
X11088643Y-10311286D01*
X11079119Y-10349381D01*
X11069595Y-10368429D01*
X11060071Y-10377952D01*
X11041024Y-10387476D01*
X11021976Y-10387476D01*
X11002929Y-10377952D01*
X10993405Y-10368429D01*
X10983881Y-10349381D01*
X10974357Y-10311286D01*
X10974357Y-10263667D01*
X10983881Y-10225571D01*
X10993405Y-10206524D01*
X11002929Y-10197000D01*
X11021976Y-10187476D01*
X11174357Y-10368429D02*
X11183881Y-10377952D01*
X11174357Y-10387476D01*
X11164833Y-10377952D01*
X11174357Y-10368429D01*
X11174357Y-10387476D01*
X11307690Y-10187476D02*
X11326738Y-10187476D01*
X11345786Y-10197000D01*
X11355309Y-10206524D01*
X11364833Y-10225571D01*
X11374357Y-10263667D01*
X11374357Y-10311286D01*
X11364833Y-10349381D01*
X11355309Y-10368429D01*
X11345786Y-10377952D01*
X11326738Y-10387476D01*
X11307690Y-10387476D01*
X11288643Y-10377952D01*
X11279119Y-10368429D01*
X11269595Y-10349381D01*
X11260071Y-10311286D01*
X11260071Y-10263667D01*
X11269595Y-10225571D01*
X11279119Y-10206524D01*
X11288643Y-10197000D01*
X11307690Y-10187476D01*
X11564833Y-10387476D02*
X11450548Y-10387476D01*
X11507690Y-10387476D02*
X11507690Y-10187476D01*
X11488643Y-10216048D01*
X11469595Y-10235095D01*
X11450548Y-10244619D01*
X11745786Y-10187476D02*
X11650548Y-10187476D01*
X11641024Y-10282714D01*
X11650548Y-10273190D01*
X11669595Y-10263667D01*
X11717214Y-10263667D01*
X11736262Y-10273190D01*
X11745786Y-10282714D01*
X11755309Y-10301762D01*
X11755309Y-10349381D01*
X11745786Y-10368429D01*
X11736262Y-10377952D01*
X11717214Y-10387476D01*
X11669595Y-10387476D01*
X11650548Y-10377952D01*
X11641024Y-10368429D01*
X11821976Y-10187476D02*
X11955309Y-10187476D01*
X11869595Y-10387476D01*
X12021976Y-10187476D02*
X12021976Y-10225571D01*
X12098167Y-10187476D02*
X12098167Y-10225571D01*
X12393405Y-10463667D02*
X12383881Y-10454143D01*
X12364833Y-10425571D01*
X12355309Y-10406524D01*
X12345786Y-10377952D01*
X12336262Y-10330333D01*
X12336262Y-10292238D01*
X12345786Y-10244619D01*
X12355309Y-10216048D01*
X12364833Y-10197000D01*
X12383881Y-10168429D01*
X12393405Y-10158905D01*
X12460071Y-10206524D02*
X12469595Y-10197000D01*
X12488643Y-10187476D01*
X12536262Y-10187476D01*
X12555309Y-10197000D01*
X12564833Y-10206524D01*
X12574357Y-10225571D01*
X12574357Y-10244619D01*
X12564833Y-10273190D01*
X12450548Y-10387476D01*
X12574357Y-10387476D01*
X12764833Y-10387476D02*
X12650548Y-10387476D01*
X12707690Y-10387476D02*
X12707690Y-10187476D01*
X12688643Y-10216048D01*
X12669595Y-10235095D01*
X12650548Y-10244619D01*
X13002928Y-10387476D02*
X13002928Y-10187476D01*
X13088643Y-10387476D02*
X13088643Y-10282714D01*
X13079119Y-10263667D01*
X13060071Y-10254143D01*
X13031500Y-10254143D01*
X13012452Y-10263667D01*
X13002928Y-10273190D01*
X13212452Y-10387476D02*
X13193405Y-10377952D01*
X13183881Y-10368429D01*
X13174357Y-10349381D01*
X13174357Y-10292238D01*
X13183881Y-10273190D01*
X13193405Y-10263667D01*
X13212452Y-10254143D01*
X13241024Y-10254143D01*
X13260071Y-10263667D01*
X13269595Y-10273190D01*
X13279119Y-10292238D01*
X13279119Y-10349381D01*
X13269595Y-10368429D01*
X13260071Y-10377952D01*
X13241024Y-10387476D01*
X13212452Y-10387476D01*
X13393405Y-10387476D02*
X13374357Y-10377952D01*
X13364833Y-10358905D01*
X13364833Y-10187476D01*
X13545786Y-10377952D02*
X13526738Y-10387476D01*
X13488643Y-10387476D01*
X13469595Y-10377952D01*
X13460071Y-10358905D01*
X13460071Y-10282714D01*
X13469595Y-10263667D01*
X13488643Y-10254143D01*
X13526738Y-10254143D01*
X13545786Y-10263667D01*
X13555309Y-10282714D01*
X13555309Y-10301762D01*
X13460071Y-10320810D01*
X13631500Y-10377952D02*
X13650548Y-10387476D01*
X13688643Y-10387476D01*
X13707690Y-10377952D01*
X13717214Y-10358905D01*
X13717214Y-10349381D01*
X13707690Y-10330333D01*
X13688643Y-10320810D01*
X13660071Y-10320810D01*
X13641024Y-10311286D01*
X13631500Y-10292238D01*
X13631500Y-10282714D01*
X13641024Y-10263667D01*
X13660071Y-10254143D01*
X13688643Y-10254143D01*
X13707690Y-10263667D01*
X13783881Y-10463667D02*
X13793405Y-10454143D01*
X13812452Y-10425571D01*
X13821976Y-10406524D01*
X13831500Y-10377952D01*
X13841024Y-10330333D01*
X13841024Y-10292238D01*
X13831500Y-10244619D01*
X13821976Y-10216048D01*
X13812452Y-10197000D01*
X13793405Y-10168429D01*
X13783881Y-10158905D01*
D13*
X8821500Y-10561000D02*
G75*
G03*
X8821500Y-10561000I-25000J0D01*
G01*
D11*
X9117214Y-10451476D02*
X9136262Y-10451476D01*
X9155310Y-10461000D01*
X9164833Y-10470524D01*
X9174357Y-10489571D01*
X9183881Y-10527667D01*
X9183881Y-10575286D01*
X9174357Y-10613381D01*
X9164833Y-10632429D01*
X9155310Y-10641952D01*
X9136262Y-10651476D01*
X9117214Y-10651476D01*
X9098167Y-10641952D01*
X9088643Y-10632429D01*
X9079119Y-10613381D01*
X9069595Y-10575286D01*
X9069595Y-10527667D01*
X9079119Y-10489571D01*
X9088643Y-10470524D01*
X9098167Y-10461000D01*
X9117214Y-10451476D01*
X9269595Y-10632429D02*
X9279119Y-10641952D01*
X9269595Y-10651476D01*
X9260071Y-10641952D01*
X9269595Y-10632429D01*
X9269595Y-10651476D01*
X9460071Y-10451476D02*
X9364833Y-10451476D01*
X9355310Y-10546714D01*
X9364833Y-10537190D01*
X9383881Y-10527667D01*
X9431500Y-10527667D01*
X9450548Y-10537190D01*
X9460071Y-10546714D01*
X9469595Y-10565762D01*
X9469595Y-10613381D01*
X9460071Y-10632429D01*
X9450548Y-10641952D01*
X9431500Y-10651476D01*
X9383881Y-10651476D01*
X9364833Y-10641952D01*
X9355310Y-10632429D01*
X9593405Y-10451476D02*
X9612452Y-10451476D01*
X9631500Y-10461000D01*
X9641024Y-10470524D01*
X9650548Y-10489571D01*
X9660071Y-10527667D01*
X9660071Y-10575286D01*
X9650548Y-10613381D01*
X9641024Y-10632429D01*
X9631500Y-10641952D01*
X9612452Y-10651476D01*
X9593405Y-10651476D01*
X9574357Y-10641952D01*
X9564833Y-10632429D01*
X9555310Y-10613381D01*
X9545786Y-10575286D01*
X9545786Y-10527667D01*
X9555310Y-10489571D01*
X9564833Y-10470524D01*
X9574357Y-10461000D01*
X9593405Y-10451476D01*
X9783881Y-10451476D02*
X9802929Y-10451476D01*
X9821976Y-10461000D01*
X9831500Y-10470524D01*
X9841024Y-10489571D01*
X9850548Y-10527667D01*
X9850548Y-10575286D01*
X9841024Y-10613381D01*
X9831500Y-10632429D01*
X9821976Y-10641952D01*
X9802929Y-10651476D01*
X9783881Y-10651476D01*
X9764833Y-10641952D01*
X9755310Y-10632429D01*
X9745786Y-10613381D01*
X9736262Y-10575286D01*
X9736262Y-10527667D01*
X9745786Y-10489571D01*
X9755310Y-10470524D01*
X9764833Y-10461000D01*
X9783881Y-10451476D01*
X9936262Y-10651476D02*
X9936262Y-10518143D01*
X9936262Y-10537190D02*
X9945786Y-10527667D01*
X9964833Y-10518143D01*
X9993405Y-10518143D01*
X10012452Y-10527667D01*
X10021976Y-10546714D01*
X10021976Y-10651476D01*
X10021976Y-10546714D02*
X10031500Y-10527667D01*
X10050548Y-10518143D01*
X10079119Y-10518143D01*
X10098167Y-10527667D01*
X10107690Y-10546714D01*
X10107690Y-10651476D01*
X10202929Y-10651476D02*
X10202929Y-10518143D01*
X10202929Y-10537190D02*
X10212452Y-10527667D01*
X10231500Y-10518143D01*
X10260071Y-10518143D01*
X10279119Y-10527667D01*
X10288643Y-10546714D01*
X10288643Y-10651476D01*
X10288643Y-10546714D02*
X10298167Y-10527667D01*
X10317214Y-10518143D01*
X10345786Y-10518143D01*
X10364833Y-10527667D01*
X10374357Y-10546714D01*
X10374357Y-10651476D01*
X10764833Y-10441952D02*
X10593405Y-10699095D01*
X11021976Y-10451476D02*
X11041024Y-10451476D01*
X11060071Y-10461000D01*
X11069595Y-10470524D01*
X11079119Y-10489571D01*
X11088643Y-10527667D01*
X11088643Y-10575286D01*
X11079119Y-10613381D01*
X11069595Y-10632429D01*
X11060071Y-10641952D01*
X11041024Y-10651476D01*
X11021976Y-10651476D01*
X11002929Y-10641952D01*
X10993405Y-10632429D01*
X10983881Y-10613381D01*
X10974357Y-10575286D01*
X10974357Y-10527667D01*
X10983881Y-10489571D01*
X10993405Y-10470524D01*
X11002929Y-10461000D01*
X11021976Y-10451476D01*
X11174357Y-10632429D02*
X11183881Y-10641952D01*
X11174357Y-10651476D01*
X11164833Y-10641952D01*
X11174357Y-10632429D01*
X11174357Y-10651476D01*
X11307690Y-10451476D02*
X11326738Y-10451476D01*
X11345786Y-10461000D01*
X11355309Y-10470524D01*
X11364833Y-10489571D01*
X11374357Y-10527667D01*
X11374357Y-10575286D01*
X11364833Y-10613381D01*
X11355309Y-10632429D01*
X11345786Y-10641952D01*
X11326738Y-10651476D01*
X11307690Y-10651476D01*
X11288643Y-10641952D01*
X11279119Y-10632429D01*
X11269595Y-10613381D01*
X11260071Y-10575286D01*
X11260071Y-10527667D01*
X11269595Y-10489571D01*
X11279119Y-10470524D01*
X11288643Y-10461000D01*
X11307690Y-10451476D01*
X11564833Y-10651476D02*
X11450548Y-10651476D01*
X11507690Y-10651476D02*
X11507690Y-10451476D01*
X11488643Y-10480048D01*
X11469595Y-10499095D01*
X11450548Y-10508619D01*
X11660071Y-10651476D02*
X11698167Y-10651476D01*
X11717214Y-10641952D01*
X11726738Y-10632429D01*
X11745786Y-10603857D01*
X11755309Y-10565762D01*
X11755309Y-10489571D01*
X11745786Y-10470524D01*
X11736262Y-10461000D01*
X11717214Y-10451476D01*
X11679119Y-10451476D01*
X11660071Y-10461000D01*
X11650548Y-10470524D01*
X11641024Y-10489571D01*
X11641024Y-10537190D01*
X11650548Y-10556238D01*
X11660071Y-10565762D01*
X11679119Y-10575286D01*
X11717214Y-10575286D01*
X11736262Y-10565762D01*
X11745786Y-10556238D01*
X11755309Y-10537190D01*
X11821976Y-10451476D02*
X11955309Y-10451476D01*
X11869595Y-10651476D01*
X12021976Y-10451476D02*
X12021976Y-10489571D01*
X12098167Y-10451476D02*
X12098167Y-10489571D01*
X12393405Y-10727667D02*
X12383881Y-10718143D01*
X12364833Y-10689571D01*
X12355309Y-10670524D01*
X12345786Y-10641952D01*
X12336262Y-10594333D01*
X12336262Y-10556238D01*
X12345786Y-10508619D01*
X12355309Y-10480048D01*
X12364833Y-10461000D01*
X12383881Y-10432429D01*
X12393405Y-10422905D01*
X12574357Y-10651476D02*
X12460071Y-10651476D01*
X12517214Y-10651476D02*
X12517214Y-10451476D01*
X12498167Y-10480048D01*
X12479119Y-10499095D01*
X12460071Y-10508619D01*
X12641024Y-10451476D02*
X12764833Y-10451476D01*
X12698167Y-10527667D01*
X12726738Y-10527667D01*
X12745786Y-10537190D01*
X12755309Y-10546714D01*
X12764833Y-10565762D01*
X12764833Y-10613381D01*
X12755309Y-10632429D01*
X12745786Y-10641952D01*
X12726738Y-10651476D01*
X12669595Y-10651476D01*
X12650548Y-10641952D01*
X12641024Y-10632429D01*
X13002928Y-10651476D02*
X13002928Y-10451476D01*
X13088643Y-10651476D02*
X13088643Y-10546714D01*
X13079119Y-10527667D01*
X13060071Y-10518143D01*
X13031500Y-10518143D01*
X13012452Y-10527667D01*
X13002928Y-10537190D01*
X13212452Y-10651476D02*
X13193405Y-10641952D01*
X13183881Y-10632429D01*
X13174357Y-10613381D01*
X13174357Y-10556238D01*
X13183881Y-10537190D01*
X13193405Y-10527667D01*
X13212452Y-10518143D01*
X13241024Y-10518143D01*
X13260071Y-10527667D01*
X13269595Y-10537190D01*
X13279119Y-10556238D01*
X13279119Y-10613381D01*
X13269595Y-10632429D01*
X13260071Y-10641952D01*
X13241024Y-10651476D01*
X13212452Y-10651476D01*
X13393405Y-10651476D02*
X13374357Y-10641952D01*
X13364833Y-10622905D01*
X13364833Y-10451476D01*
X13545786Y-10641952D02*
X13526738Y-10651476D01*
X13488643Y-10651476D01*
X13469595Y-10641952D01*
X13460071Y-10622905D01*
X13460071Y-10546714D01*
X13469595Y-10527667D01*
X13488643Y-10518143D01*
X13526738Y-10518143D01*
X13545786Y-10527667D01*
X13555309Y-10546714D01*
X13555309Y-10565762D01*
X13460071Y-10584810D01*
X13631500Y-10641952D02*
X13650548Y-10651476D01*
X13688643Y-10651476D01*
X13707690Y-10641952D01*
X13717214Y-10622905D01*
X13717214Y-10613381D01*
X13707690Y-10594333D01*
X13688643Y-10584810D01*
X13660071Y-10584810D01*
X13641024Y-10575286D01*
X13631500Y-10556238D01*
X13631500Y-10546714D01*
X13641024Y-10527667D01*
X13660071Y-10518143D01*
X13688643Y-10518143D01*
X13707690Y-10527667D01*
X13783881Y-10727667D02*
X13793405Y-10718143D01*
X13812452Y-10689571D01*
X13821976Y-10670524D01*
X13831500Y-10641952D01*
X13841024Y-10594333D01*
X13841024Y-10556238D01*
X13831500Y-10508619D01*
X13821976Y-10480048D01*
X13812452Y-10461000D01*
X13793405Y-10432429D01*
X13783881Y-10422905D01*
D14*
X8771970Y-10775470D02*
X8771970Y-10874530D01*
X8722440Y-10825000D02*
X8821500Y-10825000D01*
D11*
X9117214Y-10715476D02*
X9136262Y-10715476D01*
X9155310Y-10725000D01*
X9164833Y-10734524D01*
X9174357Y-10753571D01*
X9183881Y-10791667D01*
X9183881Y-10839286D01*
X9174357Y-10877381D01*
X9164833Y-10896429D01*
X9155310Y-10905952D01*
X9136262Y-10915476D01*
X9117214Y-10915476D01*
X9098167Y-10905952D01*
X9088643Y-10896429D01*
X9079119Y-10877381D01*
X9069595Y-10839286D01*
X9069595Y-10791667D01*
X9079119Y-10753571D01*
X9088643Y-10734524D01*
X9098167Y-10725000D01*
X9117214Y-10715476D01*
X9269595Y-10896429D02*
X9279119Y-10905952D01*
X9269595Y-10915476D01*
X9260071Y-10905952D01*
X9269595Y-10896429D01*
X9269595Y-10915476D01*
X9374357Y-10915476D02*
X9412452Y-10915476D01*
X9431500Y-10905952D01*
X9441024Y-10896429D01*
X9460071Y-10867857D01*
X9469595Y-10829762D01*
X9469595Y-10753571D01*
X9460071Y-10734524D01*
X9450548Y-10725000D01*
X9431500Y-10715476D01*
X9393405Y-10715476D01*
X9374357Y-10725000D01*
X9364833Y-10734524D01*
X9355310Y-10753571D01*
X9355310Y-10801190D01*
X9364833Y-10820238D01*
X9374357Y-10829762D01*
X9393405Y-10839286D01*
X9431500Y-10839286D01*
X9450548Y-10829762D01*
X9460071Y-10820238D01*
X9469595Y-10801190D01*
X9564833Y-10915476D02*
X9602929Y-10915476D01*
X9621976Y-10905952D01*
X9631500Y-10896429D01*
X9650548Y-10867857D01*
X9660071Y-10829762D01*
X9660071Y-10753571D01*
X9650548Y-10734524D01*
X9641024Y-10725000D01*
X9621976Y-10715476D01*
X9583881Y-10715476D01*
X9564833Y-10725000D01*
X9555310Y-10734524D01*
X9545786Y-10753571D01*
X9545786Y-10801190D01*
X9555310Y-10820238D01*
X9564833Y-10829762D01*
X9583881Y-10839286D01*
X9621976Y-10839286D01*
X9641024Y-10829762D01*
X9650548Y-10820238D01*
X9660071Y-10801190D01*
X9850548Y-10915476D02*
X9736262Y-10915476D01*
X9793405Y-10915476D02*
X9793405Y-10715476D01*
X9774357Y-10744048D01*
X9755310Y-10763095D01*
X9736262Y-10772619D01*
X9936262Y-10915476D02*
X9936262Y-10782143D01*
X9936262Y-10801190D02*
X9945786Y-10791667D01*
X9964833Y-10782143D01*
X9993405Y-10782143D01*
X10012452Y-10791667D01*
X10021976Y-10810714D01*
X10021976Y-10915476D01*
X10021976Y-10810714D02*
X10031500Y-10791667D01*
X10050548Y-10782143D01*
X10079119Y-10782143D01*
X10098167Y-10791667D01*
X10107690Y-10810714D01*
X10107690Y-10915476D01*
X10202929Y-10915476D02*
X10202929Y-10782143D01*
X10202929Y-10801190D02*
X10212452Y-10791667D01*
X10231500Y-10782143D01*
X10260071Y-10782143D01*
X10279119Y-10791667D01*
X10288643Y-10810714D01*
X10288643Y-10915476D01*
X10288643Y-10810714D02*
X10298167Y-10791667D01*
X10317214Y-10782143D01*
X10345786Y-10782143D01*
X10364833Y-10791667D01*
X10374357Y-10810714D01*
X10374357Y-10915476D01*
X10764833Y-10705952D02*
X10593405Y-10963095D01*
X11021976Y-10715476D02*
X11041024Y-10715476D01*
X11060071Y-10725000D01*
X11069595Y-10734524D01*
X11079119Y-10753571D01*
X11088643Y-10791667D01*
X11088643Y-10839286D01*
X11079119Y-10877381D01*
X11069595Y-10896429D01*
X11060071Y-10905952D01*
X11041024Y-10915476D01*
X11021976Y-10915476D01*
X11002929Y-10905952D01*
X10993405Y-10896429D01*
X10983881Y-10877381D01*
X10974357Y-10839286D01*
X10974357Y-10791667D01*
X10983881Y-10753571D01*
X10993405Y-10734524D01*
X11002929Y-10725000D01*
X11021976Y-10715476D01*
X11174357Y-10896429D02*
X11183881Y-10905952D01*
X11174357Y-10915476D01*
X11164833Y-10905952D01*
X11174357Y-10896429D01*
X11174357Y-10915476D01*
X11307690Y-10715476D02*
X11326738Y-10715476D01*
X11345786Y-10725000D01*
X11355309Y-10734524D01*
X11364833Y-10753571D01*
X11374357Y-10791667D01*
X11374357Y-10839286D01*
X11364833Y-10877381D01*
X11355309Y-10896429D01*
X11345786Y-10905952D01*
X11326738Y-10915476D01*
X11307690Y-10915476D01*
X11288643Y-10905952D01*
X11279119Y-10896429D01*
X11269595Y-10877381D01*
X11260071Y-10839286D01*
X11260071Y-10791667D01*
X11269595Y-10753571D01*
X11279119Y-10734524D01*
X11288643Y-10725000D01*
X11307690Y-10715476D01*
X11441024Y-10715476D02*
X11564833Y-10715476D01*
X11498167Y-10791667D01*
X11526738Y-10791667D01*
X11545786Y-10801190D01*
X11555309Y-10810714D01*
X11564833Y-10829762D01*
X11564833Y-10877381D01*
X11555309Y-10896429D01*
X11545786Y-10905952D01*
X11526738Y-10915476D01*
X11469595Y-10915476D01*
X11450548Y-10905952D01*
X11441024Y-10896429D01*
X11660071Y-10915476D02*
X11698167Y-10915476D01*
X11717214Y-10905952D01*
X11726738Y-10896429D01*
X11745786Y-10867857D01*
X11755309Y-10829762D01*
X11755309Y-10753571D01*
X11745786Y-10734524D01*
X11736262Y-10725000D01*
X11717214Y-10715476D01*
X11679119Y-10715476D01*
X11660071Y-10725000D01*
X11650548Y-10734524D01*
X11641024Y-10753571D01*
X11641024Y-10801190D01*
X11650548Y-10820238D01*
X11660071Y-10829762D01*
X11679119Y-10839286D01*
X11717214Y-10839286D01*
X11736262Y-10829762D01*
X11745786Y-10820238D01*
X11755309Y-10801190D01*
X11879119Y-10715476D02*
X11898167Y-10715476D01*
X11917214Y-10725000D01*
X11926738Y-10734524D01*
X11936262Y-10753571D01*
X11945786Y-10791667D01*
X11945786Y-10839286D01*
X11936262Y-10877381D01*
X11926738Y-10896429D01*
X11917214Y-10905952D01*
X11898167Y-10915476D01*
X11879119Y-10915476D01*
X11860071Y-10905952D01*
X11850548Y-10896429D01*
X11841024Y-10877381D01*
X11831500Y-10839286D01*
X11831500Y-10791667D01*
X11841024Y-10753571D01*
X11850548Y-10734524D01*
X11860071Y-10725000D01*
X11879119Y-10715476D01*
X12021976Y-10715476D02*
X12021976Y-10753571D01*
X12098167Y-10715476D02*
X12098167Y-10753571D01*
X12393405Y-10991667D02*
X12383881Y-10982143D01*
X12364833Y-10953571D01*
X12355309Y-10934524D01*
X12345786Y-10905952D01*
X12336262Y-10858333D01*
X12336262Y-10820238D01*
X12345786Y-10772619D01*
X12355309Y-10744048D01*
X12364833Y-10725000D01*
X12383881Y-10696429D01*
X12393405Y-10686905D01*
X12555309Y-10782143D02*
X12555309Y-10915476D01*
X12507690Y-10705952D02*
X12460071Y-10848810D01*
X12583881Y-10848810D01*
X12812452Y-10915476D02*
X12812452Y-10715476D01*
X12898167Y-10915476D02*
X12898167Y-10810714D01*
X12888643Y-10791667D01*
X12869595Y-10782143D01*
X12841024Y-10782143D01*
X12821976Y-10791667D01*
X12812452Y-10801190D01*
X13021976Y-10915476D02*
X13002928Y-10905952D01*
X12993405Y-10896429D01*
X12983881Y-10877381D01*
X12983881Y-10820238D01*
X12993405Y-10801190D01*
X13002928Y-10791667D01*
X13021976Y-10782143D01*
X13050548Y-10782143D01*
X13069595Y-10791667D01*
X13079119Y-10801190D01*
X13088643Y-10820238D01*
X13088643Y-10877381D01*
X13079119Y-10896429D01*
X13069595Y-10905952D01*
X13050548Y-10915476D01*
X13021976Y-10915476D01*
X13202928Y-10915476D02*
X13183881Y-10905952D01*
X13174357Y-10886905D01*
X13174357Y-10715476D01*
X13355309Y-10905952D02*
X13336262Y-10915476D01*
X13298167Y-10915476D01*
X13279119Y-10905952D01*
X13269595Y-10886905D01*
X13269595Y-10810714D01*
X13279119Y-10791667D01*
X13298167Y-10782143D01*
X13336262Y-10782143D01*
X13355309Y-10791667D01*
X13364833Y-10810714D01*
X13364833Y-10829762D01*
X13269595Y-10848810D01*
X13441024Y-10905952D02*
X13460071Y-10915476D01*
X13498167Y-10915476D01*
X13517214Y-10905952D01*
X13526738Y-10886905D01*
X13526738Y-10877381D01*
X13517214Y-10858333D01*
X13498167Y-10848810D01*
X13469595Y-10848810D01*
X13450548Y-10839286D01*
X13441024Y-10820238D01*
X13441024Y-10810714D01*
X13450548Y-10791667D01*
X13469595Y-10782143D01*
X13498167Y-10782143D01*
X13517214Y-10791667D01*
X13593405Y-10991667D02*
X13602928Y-10982143D01*
X13621976Y-10953571D01*
X13631500Y-10934524D01*
X13641024Y-10905952D01*
X13650548Y-10858333D01*
X13650548Y-10820238D01*
X13641024Y-10772619D01*
X13631500Y-10744048D01*
X13621976Y-10725000D01*
X13602928Y-10696429D01*
X13593405Y-10686905D01*
D15*
X8806856Y-11124356D02*
X8806856Y-11053644D01*
X8736144Y-11053644D01*
X8736144Y-11124356D01*
X8806856Y-11124356D01*
D11*
X9183881Y-11179476D02*
X9069595Y-11179476D01*
X9126738Y-11179476D02*
X9126738Y-10979476D01*
X9107690Y-11008048D01*
X9088643Y-11027095D01*
X9069595Y-11036619D01*
X9269595Y-11160429D02*
X9279119Y-11169952D01*
X9269595Y-11179476D01*
X9260071Y-11169952D01*
X9269595Y-11160429D01*
X9269595Y-11179476D01*
X9402929Y-10979476D02*
X9421976Y-10979476D01*
X9441024Y-10989000D01*
X9450548Y-10998524D01*
X9460071Y-11017571D01*
X9469595Y-11055667D01*
X9469595Y-11103286D01*
X9460071Y-11141381D01*
X9450548Y-11160429D01*
X9441024Y-11169952D01*
X9421976Y-11179476D01*
X9402929Y-11179476D01*
X9383881Y-11169952D01*
X9374357Y-11160429D01*
X9364833Y-11141381D01*
X9355310Y-11103286D01*
X9355310Y-11055667D01*
X9364833Y-11017571D01*
X9374357Y-10998524D01*
X9383881Y-10989000D01*
X9402929Y-10979476D01*
X9593405Y-10979476D02*
X9612452Y-10979476D01*
X9631500Y-10989000D01*
X9641024Y-10998524D01*
X9650548Y-11017571D01*
X9660071Y-11055667D01*
X9660071Y-11103286D01*
X9650548Y-11141381D01*
X9641024Y-11160429D01*
X9631500Y-11169952D01*
X9612452Y-11179476D01*
X9593405Y-11179476D01*
X9574357Y-11169952D01*
X9564833Y-11160429D01*
X9555310Y-11141381D01*
X9545786Y-11103286D01*
X9545786Y-11055667D01*
X9555310Y-11017571D01*
X9564833Y-10998524D01*
X9574357Y-10989000D01*
X9593405Y-10979476D01*
X9783881Y-10979476D02*
X9802929Y-10979476D01*
X9821976Y-10989000D01*
X9831500Y-10998524D01*
X9841024Y-11017571D01*
X9850548Y-11055667D01*
X9850548Y-11103286D01*
X9841024Y-11141381D01*
X9831500Y-11160429D01*
X9821976Y-11169952D01*
X9802929Y-11179476D01*
X9783881Y-11179476D01*
X9764833Y-11169952D01*
X9755310Y-11160429D01*
X9745786Y-11141381D01*
X9736262Y-11103286D01*
X9736262Y-11055667D01*
X9745786Y-11017571D01*
X9755310Y-10998524D01*
X9764833Y-10989000D01*
X9783881Y-10979476D01*
X9936262Y-11179476D02*
X9936262Y-11046143D01*
X9936262Y-11065190D02*
X9945786Y-11055667D01*
X9964833Y-11046143D01*
X9993405Y-11046143D01*
X10012452Y-11055667D01*
X10021976Y-11074714D01*
X10021976Y-11179476D01*
X10021976Y-11074714D02*
X10031500Y-11055667D01*
X10050548Y-11046143D01*
X10079119Y-11046143D01*
X10098167Y-11055667D01*
X10107690Y-11074714D01*
X10107690Y-11179476D01*
X10202929Y-11179476D02*
X10202929Y-11046143D01*
X10202929Y-11065190D02*
X10212452Y-11055667D01*
X10231500Y-11046143D01*
X10260071Y-11046143D01*
X10279119Y-11055667D01*
X10288643Y-11074714D01*
X10288643Y-11179476D01*
X10288643Y-11074714D02*
X10298167Y-11055667D01*
X10317214Y-11046143D01*
X10345786Y-11046143D01*
X10364833Y-11055667D01*
X10374357Y-11074714D01*
X10374357Y-11179476D01*
X10764833Y-10969952D02*
X10593405Y-11227095D01*
X11021976Y-10979476D02*
X11041024Y-10979476D01*
X11060071Y-10989000D01*
X11069595Y-10998524D01*
X11079119Y-11017571D01*
X11088643Y-11055667D01*
X11088643Y-11103286D01*
X11079119Y-11141381D01*
X11069595Y-11160429D01*
X11060071Y-11169952D01*
X11041024Y-11179476D01*
X11021976Y-11179476D01*
X11002929Y-11169952D01*
X10993405Y-11160429D01*
X10983881Y-11141381D01*
X10974357Y-11103286D01*
X10974357Y-11055667D01*
X10983881Y-11017571D01*
X10993405Y-10998524D01*
X11002929Y-10989000D01*
X11021976Y-10979476D01*
X11174357Y-11160429D02*
X11183881Y-11169952D01*
X11174357Y-11179476D01*
X11164833Y-11169952D01*
X11174357Y-11160429D01*
X11174357Y-11179476D01*
X11307690Y-10979476D02*
X11326738Y-10979476D01*
X11345786Y-10989000D01*
X11355309Y-10998524D01*
X11364833Y-11017571D01*
X11374357Y-11055667D01*
X11374357Y-11103286D01*
X11364833Y-11141381D01*
X11355309Y-11160429D01*
X11345786Y-11169952D01*
X11326738Y-11179476D01*
X11307690Y-11179476D01*
X11288643Y-11169952D01*
X11279119Y-11160429D01*
X11269595Y-11141381D01*
X11260071Y-11103286D01*
X11260071Y-11055667D01*
X11269595Y-11017571D01*
X11279119Y-10998524D01*
X11288643Y-10989000D01*
X11307690Y-10979476D01*
X11441024Y-10979476D02*
X11564833Y-10979476D01*
X11498167Y-11055667D01*
X11526738Y-11055667D01*
X11545786Y-11065190D01*
X11555309Y-11074714D01*
X11564833Y-11093762D01*
X11564833Y-11141381D01*
X11555309Y-11160429D01*
X11545786Y-11169952D01*
X11526738Y-11179476D01*
X11469595Y-11179476D01*
X11450548Y-11169952D01*
X11441024Y-11160429D01*
X11660071Y-11179476D02*
X11698167Y-11179476D01*
X11717214Y-11169952D01*
X11726738Y-11160429D01*
X11745786Y-11131857D01*
X11755309Y-11093762D01*
X11755309Y-11017571D01*
X11745786Y-10998524D01*
X11736262Y-10989000D01*
X11717214Y-10979476D01*
X11679119Y-10979476D01*
X11660071Y-10989000D01*
X11650548Y-10998524D01*
X11641024Y-11017571D01*
X11641024Y-11065190D01*
X11650548Y-11084238D01*
X11660071Y-11093762D01*
X11679119Y-11103286D01*
X11717214Y-11103286D01*
X11736262Y-11093762D01*
X11745786Y-11084238D01*
X11755309Y-11065190D01*
X11926738Y-11046143D02*
X11926738Y-11179476D01*
X11879119Y-10969952D02*
X11831500Y-11112810D01*
X11955309Y-11112810D01*
X12021976Y-10979476D02*
X12021976Y-11017571D01*
X12098167Y-10979476D02*
X12098167Y-11017571D01*
X12393405Y-11255667D02*
X12383881Y-11246143D01*
X12364833Y-11217571D01*
X12355309Y-11198524D01*
X12345786Y-11169952D01*
X12336262Y-11122333D01*
X12336262Y-11084238D01*
X12345786Y-11036619D01*
X12355309Y-11008048D01*
X12364833Y-10989000D01*
X12383881Y-10960429D01*
X12393405Y-10950905D01*
X12564833Y-10979476D02*
X12469595Y-10979476D01*
X12460071Y-11074714D01*
X12469595Y-11065190D01*
X12488643Y-11055667D01*
X12536262Y-11055667D01*
X12555309Y-11065190D01*
X12564833Y-11074714D01*
X12574357Y-11093762D01*
X12574357Y-11141381D01*
X12564833Y-11160429D01*
X12555309Y-11169952D01*
X12536262Y-11179476D01*
X12488643Y-11179476D01*
X12469595Y-11169952D01*
X12460071Y-11160429D01*
X12650548Y-10998524D02*
X12660071Y-10989000D01*
X12679119Y-10979476D01*
X12726738Y-10979476D01*
X12745786Y-10989000D01*
X12755309Y-10998524D01*
X12764833Y-11017571D01*
X12764833Y-11036619D01*
X12755309Y-11065190D01*
X12641024Y-11179476D01*
X12764833Y-11179476D01*
X13002928Y-11179476D02*
X13002928Y-10979476D01*
X13088643Y-11179476D02*
X13088643Y-11074714D01*
X13079119Y-11055667D01*
X13060071Y-11046143D01*
X13031500Y-11046143D01*
X13012452Y-11055667D01*
X13002928Y-11065190D01*
X13212452Y-11179476D02*
X13193405Y-11169952D01*
X13183881Y-11160429D01*
X13174357Y-11141381D01*
X13174357Y-11084238D01*
X13183881Y-11065190D01*
X13193405Y-11055667D01*
X13212452Y-11046143D01*
X13241024Y-11046143D01*
X13260071Y-11055667D01*
X13269595Y-11065190D01*
X13279119Y-11084238D01*
X13279119Y-11141381D01*
X13269595Y-11160429D01*
X13260071Y-11169952D01*
X13241024Y-11179476D01*
X13212452Y-11179476D01*
X13393405Y-11179476D02*
X13374357Y-11169952D01*
X13364833Y-11150905D01*
X13364833Y-10979476D01*
X13545786Y-11169952D02*
X13526738Y-11179476D01*
X13488643Y-11179476D01*
X13469595Y-11169952D01*
X13460071Y-11150905D01*
X13460071Y-11074714D01*
X13469595Y-11055667D01*
X13488643Y-11046143D01*
X13526738Y-11046143D01*
X13545786Y-11055667D01*
X13555309Y-11074714D01*
X13555309Y-11093762D01*
X13460071Y-11112810D01*
X13631500Y-11169952D02*
X13650548Y-11179476D01*
X13688643Y-11179476D01*
X13707690Y-11169952D01*
X13717214Y-11150905D01*
X13717214Y-11141381D01*
X13707690Y-11122333D01*
X13688643Y-11112810D01*
X13660071Y-11112810D01*
X13641024Y-11103286D01*
X13631500Y-11084238D01*
X13631500Y-11074714D01*
X13641024Y-11055667D01*
X13660071Y-11046143D01*
X13688643Y-11046143D01*
X13707690Y-11055667D01*
X13783881Y-11255667D02*
X13793405Y-11246143D01*
X13812452Y-11217571D01*
X13821976Y-11198524D01*
X13831500Y-11169952D01*
X13841024Y-11122333D01*
X13841024Y-11084238D01*
X13831500Y-11036619D01*
X13821976Y-11008048D01*
X13812452Y-10989000D01*
X13793405Y-10960429D01*
X13783881Y-10950905D01*
M02*
