G04 #@! TF.GenerationSoftware,KiCad,Pcbnew,6.0.1+dfsg-1*
G04 #@! TF.CreationDate,2022-05-09T21:59:49-04:00*
G04 #@! TF.ProjectId,wacom,7761636f-6d2e-46b6-9963-61645f706362,rev?*
G04 #@! TF.SameCoordinates,Original*
G04 #@! TF.FileFunction,Legend,Top*
G04 #@! TF.FilePolarity,Positive*
%FSLAX46Y46*%
G04 Gerber Fmt 4.6, Leading zero omitted, Abs format (unit mm)*
G04 Created by KiCad (PCBNEW 6.0.1+dfsg-1) date 2022-05-09 21:59:49*
%MOMM*%
%LPD*%
G01*
G04 APERTURE LIST*
%ADD10C,0.300000*%
%ADD11C,0.150000*%
%ADD12C,0.254000*%
%ADD13C,0.120000*%
%ADD14C,0.200000*%
%ADD15C,0.250000*%
%ADD16C,0.152400*%
G04 APERTURE END LIST*
D10*
X91753428Y-65358000D02*
X90682000Y-65358000D01*
X90467714Y-65286571D01*
X90324857Y-65143714D01*
X90253428Y-64929428D01*
X90253428Y-64786571D01*
X90253428Y-66786571D02*
X90253428Y-66072285D01*
X91753428Y-66072285D01*
X90396285Y-68143714D02*
X90324857Y-68072285D01*
X90253428Y-67858000D01*
X90253428Y-67715142D01*
X90324857Y-67500857D01*
X90467714Y-67358000D01*
X90610571Y-67286571D01*
X90896285Y-67215142D01*
X91110571Y-67215142D01*
X91396285Y-67286571D01*
X91539142Y-67358000D01*
X91682000Y-67500857D01*
X91753428Y-67715142D01*
X91753428Y-67858000D01*
X91682000Y-68072285D01*
X91610571Y-68143714D01*
X91753428Y-69215142D02*
X90682000Y-69215142D01*
X90467714Y-69143714D01*
X90324857Y-69000857D01*
X90253428Y-68786571D01*
X90253428Y-68643714D01*
X90253428Y-70643714D02*
X90253428Y-69929428D01*
X91753428Y-69929428D01*
X90396285Y-72000857D02*
X90324857Y-71929428D01*
X90253428Y-71715142D01*
X90253428Y-71572285D01*
X90324857Y-71358000D01*
X90467714Y-71215142D01*
X90610571Y-71143714D01*
X90896285Y-71072285D01*
X91110571Y-71072285D01*
X91396285Y-71143714D01*
X91539142Y-71215142D01*
X91682000Y-71358000D01*
X91753428Y-71572285D01*
X91753428Y-71715142D01*
X91682000Y-71929428D01*
X91610571Y-72000857D01*
X91753428Y-73072285D02*
X90682000Y-73072285D01*
X90467714Y-73000857D01*
X90324857Y-72858000D01*
X90253428Y-72643714D01*
X90253428Y-72500857D01*
X90253428Y-74500857D02*
X90253428Y-73786571D01*
X91753428Y-73786571D01*
X90396285Y-75858000D02*
X90324857Y-75786571D01*
X90253428Y-75572285D01*
X90253428Y-75429428D01*
X90324857Y-75215142D01*
X90467714Y-75072285D01*
X90610571Y-75000857D01*
X90896285Y-74929428D01*
X91110571Y-74929428D01*
X91396285Y-75000857D01*
X91539142Y-75072285D01*
X91682000Y-75215142D01*
X91753428Y-75429428D01*
X91753428Y-75572285D01*
X91682000Y-75786571D01*
X91610571Y-75858000D01*
D11*
X117992142Y-64709166D02*
X118039761Y-64756785D01*
X118087380Y-64899642D01*
X118087380Y-64994880D01*
X118039761Y-65137738D01*
X117944523Y-65232976D01*
X117849285Y-65280595D01*
X117658809Y-65328214D01*
X117515952Y-65328214D01*
X117325476Y-65280595D01*
X117230238Y-65232976D01*
X117135000Y-65137738D01*
X117087380Y-64994880D01*
X117087380Y-64899642D01*
X117135000Y-64756785D01*
X117182619Y-64709166D01*
X117515952Y-64137738D02*
X117468333Y-64232976D01*
X117420714Y-64280595D01*
X117325476Y-64328214D01*
X117277857Y-64328214D01*
X117182619Y-64280595D01*
X117135000Y-64232976D01*
X117087380Y-64137738D01*
X117087380Y-63947261D01*
X117135000Y-63852023D01*
X117182619Y-63804404D01*
X117277857Y-63756785D01*
X117325476Y-63756785D01*
X117420714Y-63804404D01*
X117468333Y-63852023D01*
X117515952Y-63947261D01*
X117515952Y-64137738D01*
X117563571Y-64232976D01*
X117611190Y-64280595D01*
X117706428Y-64328214D01*
X117896904Y-64328214D01*
X117992142Y-64280595D01*
X118039761Y-64232976D01*
X118087380Y-64137738D01*
X118087380Y-63947261D01*
X118039761Y-63852023D01*
X117992142Y-63804404D01*
X117896904Y-63756785D01*
X117706428Y-63756785D01*
X117611190Y-63804404D01*
X117563571Y-63852023D01*
X117515952Y-63947261D01*
X105751333Y-75687180D02*
X105418000Y-75210990D01*
X105179904Y-75687180D02*
X105179904Y-74687180D01*
X105560857Y-74687180D01*
X105656095Y-74734800D01*
X105703714Y-74782419D01*
X105751333Y-74877657D01*
X105751333Y-75020514D01*
X105703714Y-75115752D01*
X105656095Y-75163371D01*
X105560857Y-75210990D01*
X105179904Y-75210990D01*
X106608476Y-75020514D02*
X106608476Y-75687180D01*
X106370380Y-74639561D02*
X106132285Y-75353847D01*
X106751333Y-75353847D01*
X110069333Y-84329542D02*
X110021714Y-84377161D01*
X109878857Y-84424780D01*
X109783619Y-84424780D01*
X109640761Y-84377161D01*
X109545523Y-84281923D01*
X109497904Y-84186685D01*
X109450285Y-83996209D01*
X109450285Y-83853352D01*
X109497904Y-83662876D01*
X109545523Y-83567638D01*
X109640761Y-83472400D01*
X109783619Y-83424780D01*
X109878857Y-83424780D01*
X110021714Y-83472400D01*
X110069333Y-83520019D01*
X110402666Y-83424780D02*
X111069333Y-83424780D01*
X110640761Y-84424780D01*
X112726742Y-64581066D02*
X112774361Y-64628685D01*
X112821980Y-64771542D01*
X112821980Y-64866780D01*
X112774361Y-65009638D01*
X112679123Y-65104876D01*
X112583885Y-65152495D01*
X112393409Y-65200114D01*
X112250552Y-65200114D01*
X112060076Y-65152495D01*
X111964838Y-65104876D01*
X111869600Y-65009638D01*
X111821980Y-64866780D01*
X111821980Y-64771542D01*
X111869600Y-64628685D01*
X111917219Y-64581066D01*
X111821980Y-63676304D02*
X111821980Y-64152495D01*
X112298171Y-64200114D01*
X112250552Y-64152495D01*
X112202933Y-64057257D01*
X112202933Y-63819161D01*
X112250552Y-63723923D01*
X112298171Y-63676304D01*
X112393409Y-63628685D01*
X112631504Y-63628685D01*
X112726742Y-63676304D01*
X112774361Y-63723923D01*
X112821980Y-63819161D01*
X112821980Y-64057257D01*
X112774361Y-64152495D01*
X112726742Y-64200114D01*
X96182380Y-94313333D02*
X96896666Y-94313333D01*
X97039523Y-94360952D01*
X97134761Y-94456190D01*
X97182380Y-94599047D01*
X97182380Y-94694285D01*
X96182380Y-93360952D02*
X96182380Y-93837142D01*
X96658571Y-93884761D01*
X96610952Y-93837142D01*
X96563333Y-93741904D01*
X96563333Y-93503809D01*
X96610952Y-93408571D01*
X96658571Y-93360952D01*
X96753809Y-93313333D01*
X96991904Y-93313333D01*
X97087142Y-93360952D01*
X97134761Y-93408571D01*
X97182380Y-93503809D01*
X97182380Y-93741904D01*
X97134761Y-93837142D01*
X97087142Y-93884761D01*
X116502380Y-58753333D02*
X117216666Y-58753333D01*
X117359523Y-58800952D01*
X117454761Y-58896190D01*
X117502380Y-59039047D01*
X117502380Y-59134285D01*
X116597619Y-58324761D02*
X116550000Y-58277142D01*
X116502380Y-58181904D01*
X116502380Y-57943809D01*
X116550000Y-57848571D01*
X116597619Y-57800952D01*
X116692857Y-57753333D01*
X116788095Y-57753333D01*
X116930952Y-57800952D01*
X117502380Y-58372380D01*
X117502380Y-57753333D01*
X112456933Y-73197980D02*
X112123600Y-72721790D01*
X111885504Y-73197980D02*
X111885504Y-72197980D01*
X112266457Y-72197980D01*
X112361695Y-72245600D01*
X112409314Y-72293219D01*
X112456933Y-72388457D01*
X112456933Y-72531314D01*
X112409314Y-72626552D01*
X112361695Y-72674171D01*
X112266457Y-72721790D01*
X111885504Y-72721790D01*
X112790266Y-72197980D02*
X113456933Y-72197980D01*
X113028361Y-73197980D01*
X94281666Y-79887380D02*
X94281666Y-80601666D01*
X94234047Y-80744523D01*
X94138809Y-80839761D01*
X93995952Y-80887380D01*
X93900714Y-80887380D01*
X95281666Y-80887380D02*
X94710238Y-80887380D01*
X94995952Y-80887380D02*
X94995952Y-79887380D01*
X94900714Y-80030238D01*
X94805476Y-80125476D01*
X94710238Y-80173095D01*
X103192342Y-70461142D02*
X103144723Y-70508761D01*
X103001866Y-70556380D01*
X102906628Y-70556380D01*
X102763771Y-70508761D01*
X102668533Y-70413523D01*
X102620914Y-70318285D01*
X102573295Y-70127809D01*
X102573295Y-69984952D01*
X102620914Y-69794476D01*
X102668533Y-69699238D01*
X102763771Y-69604000D01*
X102906628Y-69556380D01*
X103001866Y-69556380D01*
X103144723Y-69604000D01*
X103192342Y-69651619D01*
X104144723Y-70556380D02*
X103573295Y-70556380D01*
X103859009Y-70556380D02*
X103859009Y-69556380D01*
X103763771Y-69699238D01*
X103668533Y-69794476D01*
X103573295Y-69842095D01*
X104763771Y-69556380D02*
X104859009Y-69556380D01*
X104954247Y-69604000D01*
X105001866Y-69651619D01*
X105049485Y-69746857D01*
X105097104Y-69937333D01*
X105097104Y-70175428D01*
X105049485Y-70365904D01*
X105001866Y-70461142D01*
X104954247Y-70508761D01*
X104859009Y-70556380D01*
X104763771Y-70556380D01*
X104668533Y-70508761D01*
X104620914Y-70461142D01*
X104573295Y-70365904D01*
X104525676Y-70175428D01*
X104525676Y-69937333D01*
X104573295Y-69746857D01*
X104620914Y-69651619D01*
X104668533Y-69604000D01*
X104763771Y-69556380D01*
X103312933Y-72594742D02*
X103265314Y-72642361D01*
X103122457Y-72689980D01*
X103027219Y-72689980D01*
X102884361Y-72642361D01*
X102789123Y-72547123D01*
X102741504Y-72451885D01*
X102693885Y-72261409D01*
X102693885Y-72118552D01*
X102741504Y-71928076D01*
X102789123Y-71832838D01*
X102884361Y-71737600D01*
X103027219Y-71689980D01*
X103122457Y-71689980D01*
X103265314Y-71737600D01*
X103312933Y-71785219D01*
X103693885Y-71785219D02*
X103741504Y-71737600D01*
X103836742Y-71689980D01*
X104074838Y-71689980D01*
X104170076Y-71737600D01*
X104217695Y-71785219D01*
X104265314Y-71880457D01*
X104265314Y-71975695D01*
X104217695Y-72118552D01*
X103646266Y-72689980D01*
X104265314Y-72689980D01*
X99715580Y-80138495D02*
X98715580Y-80138495D01*
X98715580Y-79900400D01*
X98763200Y-79757542D01*
X98858438Y-79662304D01*
X98953676Y-79614685D01*
X99144152Y-79567066D01*
X99287009Y-79567066D01*
X99477485Y-79614685D01*
X99572723Y-79662304D01*
X99667961Y-79757542D01*
X99715580Y-79900400D01*
X99715580Y-80138495D01*
X99715580Y-78614685D02*
X99715580Y-79186114D01*
X99715580Y-78900400D02*
X98715580Y-78900400D01*
X98858438Y-78995638D01*
X98953676Y-79090876D01*
X99001295Y-79186114D01*
X119323142Y-72911166D02*
X119370761Y-72958785D01*
X119418380Y-73101642D01*
X119418380Y-73196880D01*
X119370761Y-73339738D01*
X119275523Y-73434976D01*
X119180285Y-73482595D01*
X118989809Y-73530214D01*
X118846952Y-73530214D01*
X118656476Y-73482595D01*
X118561238Y-73434976D01*
X118466000Y-73339738D01*
X118418380Y-73196880D01*
X118418380Y-73101642D01*
X118466000Y-72958785D01*
X118513619Y-72911166D01*
X118751714Y-72054023D02*
X119418380Y-72054023D01*
X118370761Y-72292119D02*
X119085047Y-72530214D01*
X119085047Y-71911166D01*
X111237733Y-77160380D02*
X110904400Y-76684190D01*
X110666304Y-77160380D02*
X110666304Y-76160380D01*
X111047257Y-76160380D01*
X111142495Y-76208000D01*
X111190114Y-76255619D01*
X111237733Y-76350857D01*
X111237733Y-76493714D01*
X111190114Y-76588952D01*
X111142495Y-76636571D01*
X111047257Y-76684190D01*
X110666304Y-76684190D01*
X111618685Y-76255619D02*
X111666304Y-76208000D01*
X111761542Y-76160380D01*
X111999638Y-76160380D01*
X112094876Y-76208000D01*
X112142495Y-76255619D01*
X112190114Y-76350857D01*
X112190114Y-76446095D01*
X112142495Y-76588952D01*
X111571066Y-77160380D01*
X112190114Y-77160380D01*
X113498380Y-58804133D02*
X114212666Y-58804133D01*
X114355523Y-58851752D01*
X114450761Y-58946990D01*
X114498380Y-59089847D01*
X114498380Y-59185085D01*
X113498380Y-58423180D02*
X113498380Y-57756514D01*
X114498380Y-58185085D01*
X102804933Y-59989980D02*
X102471600Y-59513790D01*
X102233504Y-59989980D02*
X102233504Y-58989980D01*
X102614457Y-58989980D01*
X102709695Y-59037600D01*
X102757314Y-59085219D01*
X102804933Y-59180457D01*
X102804933Y-59323314D01*
X102757314Y-59418552D01*
X102709695Y-59466171D01*
X102614457Y-59513790D01*
X102233504Y-59513790D01*
X103662076Y-58989980D02*
X103471600Y-58989980D01*
X103376361Y-59037600D01*
X103328742Y-59085219D01*
X103233504Y-59228076D01*
X103185885Y-59418552D01*
X103185885Y-59799504D01*
X103233504Y-59894742D01*
X103281123Y-59942361D01*
X103376361Y-59989980D01*
X103566838Y-59989980D01*
X103662076Y-59942361D01*
X103709695Y-59894742D01*
X103757314Y-59799504D01*
X103757314Y-59561409D01*
X103709695Y-59466171D01*
X103662076Y-59418552D01*
X103566838Y-59370933D01*
X103376361Y-59370933D01*
X103281123Y-59418552D01*
X103233504Y-59466171D01*
X103185885Y-59561409D01*
X106217980Y-83427866D02*
X105741790Y-83761200D01*
X106217980Y-83999295D02*
X105217980Y-83999295D01*
X105217980Y-83618342D01*
X105265600Y-83523104D01*
X105313219Y-83475485D01*
X105408457Y-83427866D01*
X105551314Y-83427866D01*
X105646552Y-83475485D01*
X105694171Y-83523104D01*
X105741790Y-83618342D01*
X105741790Y-83999295D01*
X105217980Y-83094533D02*
X105217980Y-82475485D01*
X105598933Y-82808819D01*
X105598933Y-82665961D01*
X105646552Y-82570723D01*
X105694171Y-82523104D01*
X105789409Y-82475485D01*
X106027504Y-82475485D01*
X106122742Y-82523104D01*
X106170361Y-82570723D01*
X106217980Y-82665961D01*
X106217980Y-82951676D01*
X106170361Y-83046914D01*
X106122742Y-83094533D01*
D12*
X116616238Y-81092523D02*
X116616238Y-79822523D01*
X117946714Y-80971571D02*
X117886238Y-81032047D01*
X117704809Y-81092523D01*
X117583857Y-81092523D01*
X117402428Y-81032047D01*
X117281476Y-80911095D01*
X117221000Y-80790142D01*
X117160523Y-80548238D01*
X117160523Y-80366809D01*
X117221000Y-80124904D01*
X117281476Y-80003952D01*
X117402428Y-79883000D01*
X117583857Y-79822523D01*
X117704809Y-79822523D01*
X117886238Y-79883000D01*
X117946714Y-79943476D01*
X119156238Y-81092523D02*
X118430523Y-81092523D01*
X118793380Y-81092523D02*
X118793380Y-79822523D01*
X118672428Y-80003952D01*
X118551476Y-80124904D01*
X118430523Y-80185380D01*
D11*
X108672380Y-94313333D02*
X109386666Y-94313333D01*
X109529523Y-94360952D01*
X109624761Y-94456190D01*
X109672380Y-94599047D01*
X109672380Y-94694285D01*
X108672380Y-93408571D02*
X108672380Y-93599047D01*
X108720000Y-93694285D01*
X108767619Y-93741904D01*
X108910476Y-93837142D01*
X109100952Y-93884761D01*
X109481904Y-93884761D01*
X109577142Y-93837142D01*
X109624761Y-93789523D01*
X109672380Y-93694285D01*
X109672380Y-93503809D01*
X109624761Y-93408571D01*
X109577142Y-93360952D01*
X109481904Y-93313333D01*
X109243809Y-93313333D01*
X109148571Y-93360952D01*
X109100952Y-93408571D01*
X109053333Y-93503809D01*
X109053333Y-93694285D01*
X109100952Y-93789523D01*
X109148571Y-93837142D01*
X109243809Y-93884761D01*
X105918095Y-62092380D02*
X105918095Y-62901904D01*
X105965714Y-62997142D01*
X106013333Y-63044761D01*
X106108571Y-63092380D01*
X106299047Y-63092380D01*
X106394285Y-63044761D01*
X106441904Y-62997142D01*
X106489523Y-62901904D01*
X106489523Y-62092380D01*
X107489523Y-63092380D02*
X106918095Y-63092380D01*
X107203809Y-63092380D02*
X107203809Y-62092380D01*
X107108571Y-62235238D01*
X107013333Y-62330476D01*
X106918095Y-62378095D01*
X112421942Y-68492666D02*
X112469561Y-68540285D01*
X112517180Y-68683142D01*
X112517180Y-68778380D01*
X112469561Y-68921238D01*
X112374323Y-69016476D01*
X112279085Y-69064095D01*
X112088609Y-69111714D01*
X111945752Y-69111714D01*
X111755276Y-69064095D01*
X111660038Y-69016476D01*
X111564800Y-68921238D01*
X111517180Y-68778380D01*
X111517180Y-68683142D01*
X111564800Y-68540285D01*
X111612419Y-68492666D01*
X112517180Y-68016476D02*
X112517180Y-67826000D01*
X112469561Y-67730761D01*
X112421942Y-67683142D01*
X112279085Y-67587904D01*
X112088609Y-67540285D01*
X111707657Y-67540285D01*
X111612419Y-67587904D01*
X111564800Y-67635523D01*
X111517180Y-67730761D01*
X111517180Y-67921238D01*
X111564800Y-68016476D01*
X111612419Y-68064095D01*
X111707657Y-68111714D01*
X111945752Y-68111714D01*
X112040990Y-68064095D01*
X112088609Y-68016476D01*
X112136228Y-67921238D01*
X112136228Y-67730761D01*
X112088609Y-67635523D01*
X112040990Y-67587904D01*
X111945752Y-67540285D01*
X92376666Y-82847380D02*
X92376666Y-83561666D01*
X92329047Y-83704523D01*
X92233809Y-83799761D01*
X92090952Y-83847380D01*
X91995714Y-83847380D01*
X93281428Y-83180714D02*
X93281428Y-83847380D01*
X93043333Y-82799761D02*
X92805238Y-83514047D01*
X93424285Y-83514047D01*
X118213142Y-68594266D02*
X118260761Y-68641885D01*
X118308380Y-68784742D01*
X118308380Y-68879980D01*
X118260761Y-69022838D01*
X118165523Y-69118076D01*
X118070285Y-69165695D01*
X117879809Y-69213314D01*
X117736952Y-69213314D01*
X117546476Y-69165695D01*
X117451238Y-69118076D01*
X117356000Y-69022838D01*
X117308380Y-68879980D01*
X117308380Y-68784742D01*
X117356000Y-68641885D01*
X117403619Y-68594266D01*
X117308380Y-67737123D02*
X117308380Y-67927600D01*
X117356000Y-68022838D01*
X117403619Y-68070457D01*
X117546476Y-68165695D01*
X117736952Y-68213314D01*
X118117904Y-68213314D01*
X118213142Y-68165695D01*
X118260761Y-68118076D01*
X118308380Y-68022838D01*
X118308380Y-67832361D01*
X118260761Y-67737123D01*
X118213142Y-67689504D01*
X118117904Y-67641885D01*
X117879809Y-67641885D01*
X117784571Y-67689504D01*
X117736952Y-67737123D01*
X117689333Y-67832361D01*
X117689333Y-68022838D01*
X117736952Y-68118076D01*
X117784571Y-68165695D01*
X117879809Y-68213314D01*
X106691180Y-89530133D02*
X107405466Y-89530133D01*
X107548323Y-89577752D01*
X107643561Y-89672990D01*
X107691180Y-89815847D01*
X107691180Y-89911085D01*
X107691180Y-89053942D02*
X106691180Y-89053942D01*
X106691180Y-88672990D01*
X106738800Y-88577752D01*
X106786419Y-88530133D01*
X106881657Y-88482514D01*
X107024514Y-88482514D01*
X107119752Y-88530133D01*
X107167371Y-88577752D01*
X107214990Y-88672990D01*
X107214990Y-89053942D01*
X107691180Y-87530133D02*
X107691180Y-88101561D01*
X107691180Y-87815847D02*
X106691180Y-87815847D01*
X106834038Y-87911085D01*
X106929276Y-88006323D01*
X106976895Y-88101561D01*
X94476666Y-60384760D02*
X94619523Y-60432379D01*
X94857619Y-60432379D01*
X94952857Y-60384760D01*
X95000476Y-60337141D01*
X95048095Y-60241903D01*
X95048095Y-60146665D01*
X95000476Y-60051427D01*
X94952857Y-60003808D01*
X94857619Y-59956189D01*
X94667142Y-59908570D01*
X94571904Y-59860951D01*
X94524285Y-59813332D01*
X94476666Y-59718094D01*
X94476666Y-59622856D01*
X94524285Y-59527618D01*
X94571904Y-59479999D01*
X94667142Y-59432379D01*
X94905238Y-59432379D01*
X95048095Y-59479999D01*
X95381428Y-59432379D02*
X95619523Y-60432379D01*
X95810000Y-59718094D01*
X96000476Y-60432379D01*
X96238571Y-59432379D01*
X97143333Y-60432379D02*
X96571904Y-60432379D01*
X96857619Y-60432379D02*
X96857619Y-59432379D01*
X96762380Y-59575237D01*
X96667142Y-59670475D01*
X96571904Y-59718094D01*
X90622380Y-60527618D02*
X90146190Y-60860951D01*
X90622380Y-61099046D02*
X89622380Y-61099046D01*
X89622380Y-60718094D01*
X89670000Y-60622856D01*
X89717619Y-60575237D01*
X89812857Y-60527618D01*
X89955714Y-60527618D01*
X90050952Y-60575237D01*
X90098571Y-60622856D01*
X90146190Y-60718094D01*
X90146190Y-61099046D01*
X89622380Y-60241903D02*
X89622380Y-59670475D01*
X90622380Y-59956189D02*
X89622380Y-59956189D01*
X90574761Y-59384760D02*
X90622380Y-59241903D01*
X90622380Y-59003808D01*
X90574761Y-58908570D01*
X90527142Y-58860951D01*
X90431904Y-58813332D01*
X90336666Y-58813332D01*
X90241428Y-58860951D01*
X90193809Y-58908570D01*
X90146190Y-59003808D01*
X90098571Y-59194284D01*
X90050952Y-59289522D01*
X90003333Y-59337141D01*
X89908095Y-59384760D01*
X89812857Y-59384760D01*
X89717619Y-59337141D01*
X89670000Y-59289522D01*
X89622380Y-59194284D01*
X89622380Y-58956189D01*
X89670000Y-58813332D01*
X102661980Y-65647866D02*
X102185790Y-65981200D01*
X102661980Y-66219295D02*
X101661980Y-66219295D01*
X101661980Y-65838342D01*
X101709600Y-65743104D01*
X101757219Y-65695485D01*
X101852457Y-65647866D01*
X101995314Y-65647866D01*
X102090552Y-65695485D01*
X102138171Y-65743104D01*
X102185790Y-65838342D01*
X102185790Y-66219295D01*
X102090552Y-65076438D02*
X102042933Y-65171676D01*
X101995314Y-65219295D01*
X101900076Y-65266914D01*
X101852457Y-65266914D01*
X101757219Y-65219295D01*
X101709600Y-65171676D01*
X101661980Y-65076438D01*
X101661980Y-64885961D01*
X101709600Y-64790723D01*
X101757219Y-64743104D01*
X101852457Y-64695485D01*
X101900076Y-64695485D01*
X101995314Y-64743104D01*
X102042933Y-64790723D01*
X102090552Y-64885961D01*
X102090552Y-65076438D01*
X102138171Y-65171676D01*
X102185790Y-65219295D01*
X102281028Y-65266914D01*
X102471504Y-65266914D01*
X102566742Y-65219295D01*
X102614361Y-65171676D01*
X102661980Y-65076438D01*
X102661980Y-64885961D01*
X102614361Y-64790723D01*
X102566742Y-64743104D01*
X102471504Y-64695485D01*
X102281028Y-64695485D01*
X102185790Y-64743104D01*
X102138171Y-64790723D01*
X102090552Y-64885961D01*
X97480380Y-66422495D02*
X96480380Y-66422495D01*
X96480380Y-66184400D01*
X96528000Y-66041542D01*
X96623238Y-65946304D01*
X96718476Y-65898685D01*
X96908952Y-65851066D01*
X97051809Y-65851066D01*
X97242285Y-65898685D01*
X97337523Y-65946304D01*
X97432761Y-66041542D01*
X97480380Y-66184400D01*
X97480380Y-66422495D01*
X96480380Y-65517733D02*
X96480380Y-64898685D01*
X96861333Y-65232019D01*
X96861333Y-65089161D01*
X96908952Y-64993923D01*
X96956571Y-64946304D01*
X97051809Y-64898685D01*
X97289904Y-64898685D01*
X97385142Y-64946304D01*
X97432761Y-64993923D01*
X97480380Y-65089161D01*
X97480380Y-65374876D01*
X97432761Y-65470114D01*
X97385142Y-65517733D01*
X131752380Y-94313333D02*
X132466666Y-94313333D01*
X132609523Y-94360952D01*
X132704761Y-94456190D01*
X132752380Y-94599047D01*
X132752380Y-94694285D01*
X131752380Y-93932380D02*
X131752380Y-93313333D01*
X132133333Y-93646666D01*
X132133333Y-93503809D01*
X132180952Y-93408571D01*
X132228571Y-93360952D01*
X132323809Y-93313333D01*
X132561904Y-93313333D01*
X132657142Y-93360952D01*
X132704761Y-93408571D01*
X132752380Y-93503809D01*
X132752380Y-93789523D01*
X132704761Y-93884761D01*
X132657142Y-93932380D01*
X108300780Y-74791866D02*
X107824590Y-75125200D01*
X108300780Y-75363295D02*
X107300780Y-75363295D01*
X107300780Y-74982342D01*
X107348400Y-74887104D01*
X107396019Y-74839485D01*
X107491257Y-74791866D01*
X107634114Y-74791866D01*
X107729352Y-74839485D01*
X107776971Y-74887104D01*
X107824590Y-74982342D01*
X107824590Y-75363295D01*
X108300780Y-73839485D02*
X108300780Y-74410914D01*
X108300780Y-74125200D02*
X107300780Y-74125200D01*
X107443638Y-74220438D01*
X107538876Y-74315676D01*
X107586495Y-74410914D01*
X110018533Y-86005942D02*
X109970914Y-86053561D01*
X109828057Y-86101180D01*
X109732819Y-86101180D01*
X109589961Y-86053561D01*
X109494723Y-85958323D01*
X109447104Y-85863085D01*
X109399485Y-85672609D01*
X109399485Y-85529752D01*
X109447104Y-85339276D01*
X109494723Y-85244038D01*
X109589961Y-85148800D01*
X109732819Y-85101180D01*
X109828057Y-85101180D01*
X109970914Y-85148800D01*
X110018533Y-85196419D01*
X110970914Y-86101180D02*
X110399485Y-86101180D01*
X110685200Y-86101180D02*
X110685200Y-85101180D01*
X110589961Y-85244038D01*
X110494723Y-85339276D01*
X110399485Y-85386895D01*
X140636666Y-58717380D02*
X140636666Y-59431666D01*
X140589047Y-59574523D01*
X140493809Y-59669761D01*
X140350952Y-59717380D01*
X140255714Y-59717380D01*
X141255714Y-59145952D02*
X141160476Y-59098333D01*
X141112857Y-59050714D01*
X141065238Y-58955476D01*
X141065238Y-58907857D01*
X141112857Y-58812619D01*
X141160476Y-58765000D01*
X141255714Y-58717380D01*
X141446190Y-58717380D01*
X141541428Y-58765000D01*
X141589047Y-58812619D01*
X141636666Y-58907857D01*
X141636666Y-58955476D01*
X141589047Y-59050714D01*
X141541428Y-59098333D01*
X141446190Y-59145952D01*
X141255714Y-59145952D01*
X141160476Y-59193571D01*
X141112857Y-59241190D01*
X141065238Y-59336428D01*
X141065238Y-59526904D01*
X141112857Y-59622142D01*
X141160476Y-59669761D01*
X141255714Y-59717380D01*
X141446190Y-59717380D01*
X141541428Y-59669761D01*
X141589047Y-59622142D01*
X141636666Y-59526904D01*
X141636666Y-59336428D01*
X141589047Y-59241190D01*
X141541428Y-59193571D01*
X141446190Y-59145952D01*
X101442780Y-79516266D02*
X100966590Y-79849600D01*
X101442780Y-80087695D02*
X100442780Y-80087695D01*
X100442780Y-79706742D01*
X100490400Y-79611504D01*
X100538019Y-79563885D01*
X100633257Y-79516266D01*
X100776114Y-79516266D01*
X100871352Y-79563885D01*
X100918971Y-79611504D01*
X100966590Y-79706742D01*
X100966590Y-80087695D01*
X100442780Y-78611504D02*
X100442780Y-79087695D01*
X100918971Y-79135314D01*
X100871352Y-79087695D01*
X100823733Y-78992457D01*
X100823733Y-78754361D01*
X100871352Y-78659123D01*
X100918971Y-78611504D01*
X101014209Y-78563885D01*
X101252304Y-78563885D01*
X101347542Y-78611504D01*
X101395161Y-78659123D01*
X101442780Y-78754361D01*
X101442780Y-78992457D01*
X101395161Y-79087695D01*
X101347542Y-79135314D01*
X116216133Y-87529942D02*
X116168514Y-87577561D01*
X116025657Y-87625180D01*
X115930419Y-87625180D01*
X115787561Y-87577561D01*
X115692323Y-87482323D01*
X115644704Y-87387085D01*
X115597085Y-87196609D01*
X115597085Y-87053752D01*
X115644704Y-86863276D01*
X115692323Y-86768038D01*
X115787561Y-86672800D01*
X115930419Y-86625180D01*
X116025657Y-86625180D01*
X116168514Y-86672800D01*
X116216133Y-86720419D01*
X116549466Y-86625180D02*
X117168514Y-86625180D01*
X116835180Y-87006133D01*
X116978038Y-87006133D01*
X117073276Y-87053752D01*
X117120895Y-87101371D01*
X117168514Y-87196609D01*
X117168514Y-87434704D01*
X117120895Y-87529942D01*
X117073276Y-87577561D01*
X116978038Y-87625180D01*
X116692323Y-87625180D01*
X116597085Y-87577561D01*
X116549466Y-87529942D01*
X98089980Y-80138495D02*
X97089980Y-80138495D01*
X97089980Y-79900400D01*
X97137600Y-79757542D01*
X97232838Y-79662304D01*
X97328076Y-79614685D01*
X97518552Y-79567066D01*
X97661409Y-79567066D01*
X97851885Y-79614685D01*
X97947123Y-79662304D01*
X98042361Y-79757542D01*
X98089980Y-79900400D01*
X98089980Y-80138495D01*
X97185219Y-79186114D02*
X97137600Y-79138495D01*
X97089980Y-79043257D01*
X97089980Y-78805161D01*
X97137600Y-78709923D01*
X97185219Y-78662304D01*
X97280457Y-78614685D01*
X97375695Y-78614685D01*
X97518552Y-78662304D01*
X98089980Y-79233733D01*
X98089980Y-78614685D01*
D13*
X116715000Y-64396233D02*
X116715000Y-64688767D01*
X115695000Y-64396233D02*
X115695000Y-64688767D01*
X106530224Y-77230500D02*
X106020776Y-77230500D01*
X106530224Y-76185500D02*
X106020776Y-76185500D01*
X110089733Y-80774000D02*
X110382267Y-80774000D01*
X110089733Y-79754000D02*
X110382267Y-79754000D01*
X114175000Y-64396233D02*
X114175000Y-64688767D01*
X113155000Y-64396233D02*
X113155000Y-64688767D01*
X99060000Y-95310000D02*
X97730000Y-95310000D01*
X100330000Y-92650000D02*
X108010000Y-92650000D01*
X100330000Y-95310000D02*
X108010000Y-95310000D01*
X108010000Y-95310000D02*
X108010000Y-92650000D01*
X100330000Y-95310000D02*
X100330000Y-92650000D01*
X97730000Y-95310000D02*
X97730000Y-93980000D01*
X120650000Y-59750000D02*
X120650000Y-57090000D01*
X119380000Y-59750000D02*
X118050000Y-59750000D01*
X118050000Y-59750000D02*
X118050000Y-58420000D01*
X120650000Y-59750000D02*
X125790000Y-59750000D01*
X125790000Y-59750000D02*
X125790000Y-57090000D01*
X120650000Y-57090000D02*
X125790000Y-57090000D01*
X111909776Y-73645500D02*
X112419224Y-73645500D01*
X111909776Y-74690500D02*
X112419224Y-74690500D01*
X95945000Y-76835000D02*
X95945000Y-64075000D01*
X93285000Y-76835000D02*
X93285000Y-64075000D01*
X95945000Y-76835000D02*
X93285000Y-76835000D01*
X95945000Y-64075000D02*
X93285000Y-64075000D01*
X95945000Y-78105000D02*
X95945000Y-79435000D01*
X95945000Y-79435000D02*
X94615000Y-79435000D01*
X100437733Y-69467000D02*
X100730267Y-69467000D01*
X100437733Y-70487000D02*
X100730267Y-70487000D01*
X100437733Y-71626000D02*
X100730267Y-71626000D01*
X100437733Y-72646000D02*
X100730267Y-72646000D01*
X104306000Y-81402000D02*
X104306000Y-78252000D01*
X104306000Y-81402000D02*
X106006000Y-81402000D01*
X106006000Y-81402000D02*
X106006000Y-78252000D01*
X120906000Y-72890767D02*
X120906000Y-72598233D01*
X119886000Y-72890767D02*
X119886000Y-72598233D01*
X109981276Y-78500500D02*
X110490724Y-78500500D01*
X109981276Y-77455500D02*
X110490724Y-77455500D01*
X110490000Y-57090000D02*
X105350000Y-57090000D01*
X110490000Y-57090000D02*
X110490000Y-59750000D01*
X111760000Y-57090000D02*
X113090000Y-57090000D01*
X110490000Y-59750000D02*
X105350000Y-59750000D01*
X113090000Y-57090000D02*
X113090000Y-58420000D01*
X105350000Y-57090000D02*
X105350000Y-59750000D01*
X103228224Y-61736500D02*
X102718776Y-61736500D01*
X103228224Y-60691500D02*
X102718776Y-60691500D01*
X106665500Y-83162224D02*
X106665500Y-82652776D01*
X107710500Y-83162224D02*
X107710500Y-82652776D01*
D14*
X114706000Y-77368000D02*
X121006000Y-77368000D01*
X121006000Y-83668000D02*
X114706000Y-83668000D01*
X121006000Y-77368000D02*
X121006000Y-83668000D01*
X114706000Y-83668000D02*
X114706000Y-77368000D01*
D15*
X122706000Y-84018000D02*
G75*
G03*
X122706000Y-84018000I-125000J0D01*
G01*
D13*
X113030000Y-92650000D02*
X130870000Y-92650000D01*
X111760000Y-95310000D02*
X110430000Y-95310000D01*
X113030000Y-95310000D02*
X113030000Y-92650000D01*
X110430000Y-95310000D02*
X110430000Y-93980000D01*
X130870000Y-95310000D02*
X130870000Y-92650000D01*
X113030000Y-95310000D02*
X130870000Y-95310000D01*
X106680000Y-68600000D02*
X108630000Y-68600000D01*
X106680000Y-68600000D02*
X104730000Y-68600000D01*
X106680000Y-63480000D02*
X103230000Y-63480000D01*
X106680000Y-63480000D02*
X108630000Y-63480000D01*
X113155000Y-68433733D02*
X113155000Y-68726267D01*
X114175000Y-68433733D02*
X114175000Y-68726267D01*
X90110000Y-86995000D02*
X90110000Y-92135000D01*
X90110000Y-84395000D02*
X91440000Y-84395000D01*
X90110000Y-85725000D02*
X90110000Y-84395000D01*
X90110000Y-86995000D02*
X92710000Y-86995000D01*
X92710000Y-86995000D02*
X92710000Y-84395000D01*
X90110000Y-92135000D02*
X95310000Y-92135000D01*
X92710000Y-84395000D02*
X95310000Y-84395000D01*
X95310000Y-84395000D02*
X95310000Y-92135000D01*
X115695000Y-68433733D02*
X115695000Y-68726267D01*
X116715000Y-68433733D02*
X116715000Y-68726267D01*
X110474000Y-87946000D02*
X110474000Y-89346000D01*
X108474000Y-89346000D02*
X108474000Y-87946000D01*
X109174000Y-87246000D02*
X109774000Y-87246000D01*
X109774000Y-90046000D02*
X109174000Y-90046000D01*
X109174000Y-87246000D02*
G75*
G03*
X108474000Y-87946000I-1J-699999D01*
G01*
X109774000Y-90046000D02*
G75*
G03*
X110474000Y-89346000I1J699999D01*
G01*
X110474000Y-87946000D02*
G75*
G03*
X109774000Y-87246000I-699999J1D01*
G01*
X108474000Y-89346000D02*
G75*
G03*
X109174000Y-90046000I699999J-1D01*
G01*
D16*
X93197640Y-63104199D02*
X98422360Y-63104199D01*
X92685800Y-58812039D02*
X92685800Y-61155298D01*
X98934200Y-61155298D02*
X98934200Y-58804701D01*
X98422360Y-56855799D02*
X93617708Y-56855799D01*
D13*
X100315500Y-66017224D02*
X100315500Y-65507776D01*
X101360500Y-66017224D02*
X101360500Y-65507776D01*
X97817000Y-64140000D02*
X97817000Y-66600000D01*
X99287000Y-66600000D02*
X99287000Y-64140000D01*
X99287000Y-64140000D02*
X97817000Y-64140000D01*
X134630000Y-95310000D02*
X133300000Y-95310000D01*
X135900000Y-95310000D02*
X135900000Y-92650000D01*
X135900000Y-95310000D02*
X143580000Y-95310000D01*
X135900000Y-92650000D02*
X143580000Y-92650000D01*
X133300000Y-95310000D02*
X133300000Y-93980000D01*
X143580000Y-95310000D02*
X143580000Y-92650000D01*
X109742500Y-74825776D02*
X109742500Y-75335224D01*
X108697500Y-74825776D02*
X108697500Y-75335224D01*
X110382267Y-82806000D02*
X110089733Y-82806000D01*
X110382267Y-81786000D02*
X110089733Y-81786000D01*
X143570000Y-60265000D02*
X143570000Y-83245000D01*
X138370000Y-60265000D02*
X139700000Y-60265000D01*
X140970000Y-60265000D02*
X143570000Y-60265000D01*
X138370000Y-62865000D02*
X138370000Y-83245000D01*
X140970000Y-62865000D02*
X140970000Y-60265000D01*
X138370000Y-62865000D02*
X140970000Y-62865000D01*
X138370000Y-61595000D02*
X138370000Y-60265000D01*
X138370000Y-83245000D02*
X143570000Y-83245000D01*
X106665500Y-78889776D02*
X106665500Y-79399224D01*
X107710500Y-78889776D02*
X107710500Y-79399224D01*
X115831233Y-87882000D02*
X116123767Y-87882000D01*
X115831233Y-88902000D02*
X116123767Y-88902000D01*
X103974000Y-77622000D02*
X103974000Y-80772000D01*
X103974000Y-77622000D02*
X102274000Y-77622000D01*
X102274000Y-77622000D02*
X102274000Y-80772000D01*
M02*
