%FSLAX45Y45*%
G04 Gerber Fmt 4.5, Leading zero omitted, Abs format (unit mm)*
G04 Created by KiCad (PCBNEW 6.0.1+dfsg-1) date 2022-05-09 21:59:54*
%MOMM*%
%LPD*%
G01*
G04 APERTURE LIST*
%TA.AperFunction,Profile*%
%ADD10C,0.100000*%
%TD*%
%ADD11C,0.200000*%
G04 APERTURE END LIST*
D10*
X8953500Y-5588000D02*
X8826500Y-5588000D01*
X14478000Y-5588000D02*
X8953500Y-5588000D01*
X8826500Y-5588000D02*
X8826500Y-9652000D01*
X14478000Y-9652000D02*
X14478000Y-9588500D01*
X14478000Y-9588500D02*
X14478000Y-5651500D01*
X14478000Y-5651500D02*
X14478000Y-5588000D01*
X8826500Y-9652000D02*
X14478000Y-9652000D01*
D11*
X9079119Y-9967476D02*
X9079119Y-9767476D01*
X9126738Y-9767476D01*
X9155310Y-9777000D01*
X9174357Y-9796048D01*
X9183881Y-9815095D01*
X9193405Y-9853190D01*
X9193405Y-9881762D01*
X9183881Y-9919857D01*
X9174357Y-9938905D01*
X9155310Y-9957952D01*
X9126738Y-9967476D01*
X9079119Y-9967476D01*
X9279119Y-9967476D02*
X9279119Y-9834143D01*
X9279119Y-9872238D02*
X9288643Y-9853190D01*
X9298167Y-9843667D01*
X9317214Y-9834143D01*
X9336262Y-9834143D01*
X9402929Y-9967476D02*
X9402929Y-9834143D01*
X9402929Y-9767476D02*
X9393405Y-9777000D01*
X9402929Y-9786524D01*
X9412452Y-9777000D01*
X9402929Y-9767476D01*
X9402929Y-9786524D01*
X9526738Y-9967476D02*
X9507690Y-9957952D01*
X9498167Y-9938905D01*
X9498167Y-9767476D01*
X9631500Y-9967476D02*
X9612452Y-9957952D01*
X9602929Y-9938905D01*
X9602929Y-9767476D01*
X9860071Y-9967476D02*
X9860071Y-9767476D01*
X9926738Y-9910333D01*
X9993405Y-9767476D01*
X9993405Y-9967476D01*
X10174357Y-9967476D02*
X10174357Y-9862714D01*
X10164833Y-9843667D01*
X10145786Y-9834143D01*
X10107690Y-9834143D01*
X10088643Y-9843667D01*
X10174357Y-9957952D02*
X10155310Y-9967476D01*
X10107690Y-9967476D01*
X10088643Y-9957952D01*
X10079119Y-9938905D01*
X10079119Y-9919857D01*
X10088643Y-9900810D01*
X10107690Y-9891286D01*
X10155310Y-9891286D01*
X10174357Y-9881762D01*
X10269595Y-9834143D02*
X10269595Y-10034143D01*
X10269595Y-9843667D02*
X10288643Y-9834143D01*
X10326738Y-9834143D01*
X10345786Y-9843667D01*
X10355310Y-9853190D01*
X10364833Y-9872238D01*
X10364833Y-9929381D01*
X10355310Y-9948429D01*
X10345786Y-9957952D01*
X10326738Y-9967476D01*
X10288643Y-9967476D01*
X10269595Y-9957952D01*
X10450548Y-9948429D02*
X10460071Y-9957952D01*
X10450548Y-9967476D01*
X10441024Y-9957952D01*
X10450548Y-9948429D01*
X10450548Y-9967476D01*
X10450548Y-9843667D02*
X10460071Y-9853190D01*
X10450548Y-9862714D01*
X10441024Y-9853190D01*
X10450548Y-9843667D01*
X10450548Y-9862714D01*
M02*
