M48
; DRILL file {KiCad 6.0.1+dfsg-1} date Mon 09 May 2022 09:59:53 PM EDT
; FORMAT={-:-/ absolute / metric / decimal}
; #@! TF.CreationDate,2022-05-09T21:59:53-04:00
; #@! TF.GenerationSoftware,Kicad,Pcbnew,6.0.1+dfsg-1
; #@! TF.FileFunction,Plated,1,2,PTH
FMAT,2
METRIC
; #@! TA.AperFunction,Plated,PTH,ViaDrill
T1C0.400
; #@! TA.AperFunction,Plated,PTH,ViaDrill
T2C0.500
; #@! TA.AperFunction,Plated,PTH,ComponentDrill
T3C0.991
; #@! TA.AperFunction,Plated,PTH,ComponentDrill
T4C1.000
%
G90
G05
T1
X108.204Y-69.342
X108.458Y-82.296
X108.966Y-79.908
X111.099Y-80.264
X114.022Y-89.13
X114.554Y-74.422
X114.554Y-87.809
X115.062Y-86.36
X115.824Y-81.534
X116.078Y-77.978
X116.84Y-80.264
X116.927Y-81.375
X117.348Y-82.804
X120.044Y-83.419
X123.19Y-67.056
X127.436Y-74.604
X131.572Y-71.882
X132.334Y-72.898
X133.096Y-73.914
X133.858Y-74.939
X136.013Y-76.069
T2
X99.568Y-82.296
X101.854Y-76.073
X105.41Y-71.501
X113.792Y-90.881
X118.923Y-66.7
X119.507Y-79.375
X121.666Y-89.789
X122.022Y-67.666
X122.555Y-71.882
X124.587Y-90.551
X125.324Y-72.238
X126.035Y-62.078
X133.248Y-70.358
T3
X92.56Y-57.73
X92.71Y-62.23
X99.06Y-57.73
X99.06Y-62.23
T4
X91.44Y-85.725
X91.44Y-88.265
X91.44Y-90.805
X93.98Y-85.725
X93.98Y-88.265
X93.98Y-90.805
X94.615Y-65.405
X94.615Y-67.945
X94.615Y-70.485
X94.615Y-73.025
X94.615Y-75.565
X94.615Y-78.105
X99.06Y-93.98
X101.6Y-93.98
X104.14Y-93.98
X106.68Y-58.42
X106.68Y-93.98
X109.22Y-58.42
X111.76Y-58.42
X111.76Y-93.98
X114.3Y-93.98
X116.84Y-93.98
X119.38Y-58.42
X119.38Y-93.98
X121.92Y-58.42
X121.92Y-93.98
X124.46Y-58.42
X124.46Y-93.98
X127.0Y-93.98
X129.54Y-93.98
X134.63Y-93.98
X137.17Y-93.98
X139.7Y-61.595
X139.7Y-64.135
X139.7Y-66.675
X139.7Y-69.215
X139.7Y-71.755
X139.7Y-74.295
X139.7Y-76.835
X139.7Y-79.375
X139.7Y-81.915
X139.71Y-93.98
X142.24Y-61.595
X142.24Y-64.135
X142.24Y-66.675
X142.24Y-69.215
X142.24Y-71.755
X142.24Y-74.295
X142.24Y-76.835
X142.24Y-79.375
X142.24Y-81.915
X142.25Y-93.98
T0
M30
